<svg width="44" height="10" viewBox="0 0 44 10" fill="none" xmlns="http://www.w3.org/2000/svg">
<path d="M7.33984 1.39453H4.59766V9H3.47852V1.39453H0.742188V0.46875H7.33984V1.39453ZM12.8477 6.77344H9.27344L8.4707 9H7.31055L10.5684 0.46875H11.5527L14.8164 9H13.6621L12.8477 6.77344ZM9.61328 5.84766H12.5137L11.0605 1.85742L9.61328 5.84766ZM19.0938 5.54883H17.0898V9H15.959V0.46875H18.7832C19.7441 0.46875 20.4824 0.6875 20.998 1.125C21.5176 1.5625 21.7773 2.19922 21.7773 3.03516C21.7773 3.56641 21.6328 4.0293 21.3438 4.42383C21.0586 4.81836 20.6602 5.11328 20.1484 5.30859L22.1523 8.92969V9H20.9453L19.0938 5.54883ZM17.0898 4.62891H18.8184C19.377 4.62891 19.8203 4.48438 20.1484 4.19531C20.4805 3.90625 20.6465 3.51953 20.6465 3.03516C20.6465 2.50781 20.4883 2.10352 20.1719 1.82227C19.8594 1.54102 19.4062 1.39844 18.8125 1.39453H17.0898V4.62891ZM28.7852 1.39453H26.043V9H24.9238V1.39453H22.1875V0.46875H28.7852V1.39453ZM34.293 6.77344H30.7188L29.916 9H28.7559L32.0137 0.46875H32.998L36.2617 9H35.1074L34.293 6.77344ZM31.0586 5.84766H33.959L32.5059 1.85742L31.0586 5.84766ZM39.9238 5.19727C38.959 4.91992 38.2559 4.58008 37.8145 4.17773C37.377 3.77148 37.1582 3.27148 37.1582 2.67773C37.1582 2.00586 37.4258 1.45117 37.9609 1.01367C38.5 0.572266 39.1992 0.351562 40.0586 0.351562C40.6445 0.351562 41.166 0.464844 41.623 0.691406C42.084 0.917969 42.4395 1.23047 42.6895 1.62891C42.9434 2.02734 43.0703 2.46289 43.0703 2.93555H41.9395C41.9395 2.41992 41.7754 2.01562 41.4473 1.72266C41.1191 1.42578 40.6562 1.27734 40.0586 1.27734C39.5039 1.27734 39.0703 1.40039 38.7578 1.64648C38.4492 1.88867 38.2949 2.22656 38.2949 2.66016C38.2949 3.00781 38.4414 3.30273 38.7344 3.54492C39.0312 3.7832 39.5332 4.00195 40.2402 4.20117C40.9512 4.40039 41.5059 4.62109 41.9043 4.86328C42.3066 5.10156 42.6035 5.38086 42.7949 5.70117C42.9902 6.02148 43.0879 6.39844 43.0879 6.83203C43.0879 7.52344 42.8184 8.07812 42.2793 8.49609C41.7402 8.91016 41.0195 9.11719 40.1172 9.11719C39.5312 9.11719 38.9844 9.00586 38.4766 8.7832C37.9688 8.55664 37.5762 8.24805 37.2988 7.85742C37.0254 7.4668 36.8887 7.02344 36.8887 6.52734H38.0195C38.0195 7.04297 38.209 7.45117 38.5879 7.75195C38.9707 8.04883 39.4805 8.19727 40.1172 8.19727C40.7109 8.19727 41.166 8.07617 41.4824 7.83398C41.7988 7.5918 41.957 7.26172 41.957 6.84375C41.957 6.42578 41.8105 6.10352 41.5176 5.87695C41.2246 5.64648 40.6934 5.41992 39.9238 5.19727Z" fill="#FFFBFB"/>
</svg>
