<svg width="491" height="69" viewBox="0 0 491 69" fill="none" xmlns="http://www.w3.org/2000/svg">
<path d="M2.71729 25.2227H15.0049V27H0.598145V2.11719H2.71729V25.2227ZM17.4487 17.481C17.4487 15.7036 17.7905 14.1029 18.4741 12.6787C19.1691 11.2546 20.1432 10.1494 21.3965 9.36328C22.6611 8.56576 24.091 8.16699 25.686 8.16699C28.147 8.16699 30.1408 9.03288 31.6675 10.7646C33.1942 12.485 33.9575 14.7694 33.9575 17.6177V18.0449C33.9575 19.8337 33.61 21.4458 32.915 22.8813C32.2314 24.3055 31.263 25.4049 30.0098 26.1797C28.7565 26.9544 27.3267 27.3418 25.7202 27.3418C23.2707 27.3418 21.2769 26.4816 19.7388 24.7612C18.2121 23.0295 17.4487 20.7394 17.4487 17.8911V17.481ZM19.4995 18.0449C19.4995 20.2552 20.0692 22.0724 21.2085 23.4966C22.3592 24.9093 23.8631 25.6157 25.7202 25.6157C27.5659 25.6157 29.0584 24.9093 30.1978 23.4966C31.3485 22.0724 31.9238 20.1982 31.9238 17.874V17.481C31.9238 16.0682 31.6618 14.7751 31.1377 13.6016C30.6136 12.4281 29.8787 11.5223 28.9331 10.8843C27.9875 10.2349 26.9051 9.91016 25.686 9.91016C23.8631 9.91016 22.3763 10.6279 21.2256 12.0635C20.0749 13.4876 19.4995 15.3561 19.4995 17.6689V18.0449ZM49.27 22.3003C49.27 21.2863 48.8599 20.4717 48.0396 19.8564C47.2306 19.2412 46.0059 18.7627 44.3652 18.4209C42.7246 18.0677 41.4486 17.6689 40.5371 17.2246C39.637 16.7689 38.9648 16.2163 38.5205 15.5669C38.0876 14.9175 37.8711 14.1313 37.8711 13.2085C37.8711 11.7502 38.4806 10.5482 39.6997 9.60254C40.9188 8.64551 42.4797 8.16699 44.3823 8.16699C46.4445 8.16699 48.0965 8.67969 49.3384 9.70508C50.5916 10.7191 51.2183 12.0464 51.2183 13.687H49.1675C49.1675 12.6047 48.7118 11.7046 47.8003 10.9868C46.9002 10.269 45.7609 9.91016 44.3823 9.91016C43.0379 9.91016 41.9556 10.2121 41.1353 10.8159C40.3263 11.4084 39.9219 12.1831 39.9219 13.1401C39.9219 14.063 40.258 14.7808 40.9302 15.2935C41.6138 15.7948 42.8499 16.2562 44.6387 16.6777C46.4388 17.0993 47.7832 17.5493 48.6719 18.0278C49.5719 18.5063 50.2384 19.0817 50.6714 19.7539C51.1043 20.4261 51.3208 21.2407 51.3208 22.1978C51.3208 23.7586 50.6885 25.0062 49.4238 25.9404C48.1706 26.8747 46.5299 27.3418 44.502 27.3418C42.3486 27.3418 40.5998 26.8234 39.2554 25.7866C37.9224 24.7384 37.2559 23.4168 37.2559 21.8218H39.3066C39.3864 23.0181 39.8877 23.9523 40.8105 24.6245C41.7448 25.2853 42.9753 25.6157 44.502 25.6157C45.9261 25.6157 47.0768 25.3024 47.9541 24.6758C48.8314 24.0492 49.27 23.2573 49.27 22.3003ZM66.3086 8.50879L66.377 11.5166C67.0605 10.4001 67.915 9.56266 68.9404 9.00439C69.9658 8.44613 71.1051 8.16699 72.3584 8.16699C75.2751 8.16699 77.1265 9.36328 77.9126 11.7559C78.5734 10.6051 79.4564 9.72217 80.5615 9.10693C81.6667 8.48031 82.8857 8.16699 84.2188 8.16699C88.1836 8.16699 90.2059 10.3317 90.2856 14.6611V27H88.2349V14.8149C88.2235 13.1629 87.8646 11.9382 87.1582 11.1406C86.4632 10.3431 85.3239 9.94434 83.7402 9.94434C82.2705 9.96712 81.0286 10.4456 80.0146 11.3799C79.0007 12.3027 78.4367 13.4307 78.3228 14.7637V27H76.272V14.6611C76.2606 13.0775 75.8846 11.8983 75.144 11.1235C74.4149 10.3374 73.2869 9.94434 71.7603 9.94434C70.4728 9.94434 69.3677 10.3146 68.4448 11.0552C67.522 11.7843 66.8384 12.8724 66.394 14.3193V27H64.3433V8.50879H66.3086ZM102.642 27.3418C101.069 27.3418 99.6452 26.9544 98.3691 26.1797C97.1045 25.4049 96.119 24.3283 95.4126 22.9497C94.7062 21.5597 94.353 20.0046 94.353 18.2842V17.5493C94.353 15.772 94.6948 14.1712 95.3784 12.7471C96.0734 11.3229 97.0361 10.2064 98.2666 9.39746C99.4971 8.57715 100.83 8.16699 102.266 8.16699C104.51 8.16699 106.287 8.93604 107.598 10.4741C108.919 12.0008 109.58 14.0915 109.58 16.7461V17.8911H96.3867V18.2842C96.3867 20.3805 96.9849 22.1294 98.1812 23.5308C99.3888 24.9207 100.904 25.6157 102.727 25.6157C103.821 25.6157 104.784 25.4163 105.615 25.0176C106.458 24.6188 107.222 23.9808 107.905 23.1035L109.187 24.0776C107.683 26.2537 105.501 27.3418 102.642 27.3418ZM102.266 9.91016C100.728 9.91016 99.4287 10.4741 98.3691 11.6021C97.321 12.73 96.6829 14.2453 96.4551 16.1479H107.546V15.9258C107.489 14.1484 106.982 12.7015 106.025 11.585C105.068 10.4684 103.815 9.91016 102.266 9.91016ZM115.767 8.50879V29.2046C115.767 30.9136 115.356 32.2181 114.536 33.1182C113.716 34.0182 112.508 34.4683 110.913 34.4683C110.298 34.4683 109.7 34.36 109.119 34.1436L109.153 32.4517C109.654 32.5998 110.167 32.6738 110.691 32.6738C112.719 32.6738 113.733 31.506 113.733 29.1704V8.50879H115.767ZM114.758 1.77539C115.203 1.77539 115.55 1.91211 115.801 2.18555C116.051 2.44759 116.177 2.7723 116.177 3.15967C116.177 3.54704 116.051 3.87174 115.801 4.13379C115.55 4.39583 115.203 4.52686 114.758 4.52686C114.325 4.52686 113.984 4.39583 113.733 4.13379C113.494 3.87174 113.374 3.54704 113.374 3.15967C113.374 2.7723 113.494 2.44759 113.733 2.18555C113.984 1.91211 114.325 1.77539 114.758 1.77539ZM120.432 17.481C120.432 15.7036 120.774 14.1029 121.458 12.6787C122.153 11.2546 123.127 10.1494 124.38 9.36328C125.645 8.56576 127.074 8.16699 128.669 8.16699C131.13 8.16699 133.124 9.03288 134.651 10.7646C136.178 12.485 136.941 14.7694 136.941 17.6177V18.0449C136.941 19.8337 136.593 21.4458 135.898 22.8813C135.215 24.3055 134.246 25.4049 132.993 26.1797C131.74 26.9544 130.31 27.3418 128.704 27.3418C126.254 27.3418 124.26 26.4816 122.722 24.7612C121.195 23.0295 120.432 20.7394 120.432 17.8911V17.481ZM122.483 18.0449C122.483 20.2552 123.053 22.0724 124.192 23.4966C125.343 24.9093 126.847 25.6157 128.704 25.6157C130.549 25.6157 132.042 24.9093 133.181 23.4966C134.332 22.0724 134.907 20.1982 134.907 17.874V17.481C134.907 16.0682 134.645 14.7751 134.121 13.6016C133.597 12.4281 132.862 11.5223 131.917 10.8843C130.971 10.2349 129.889 9.91016 128.669 9.91016C126.847 9.91016 125.36 10.6279 124.209 12.0635C123.058 13.4876 122.483 15.3561 122.483 17.6689V18.0449ZM149.724 10.252C149.291 10.1722 148.83 10.1323 148.34 10.1323C147.064 10.1323 145.981 10.4912 145.093 11.209C144.215 11.9154 143.589 12.9465 143.213 14.3022V27H141.179V8.50879H143.179L143.213 11.4482C144.295 9.26074 146.033 8.16699 148.425 8.16699C148.995 8.16699 149.445 8.24105 149.775 8.38916L149.724 10.252ZM159.79 27.3418C158.218 27.3418 156.794 26.9544 155.518 26.1797C154.253 25.4049 153.267 24.3283 152.561 22.9497C151.855 21.5597 151.501 20.0046 151.501 18.2842V17.5493C151.501 15.772 151.843 14.1712 152.527 12.7471C153.222 11.3229 154.185 10.2064 155.415 9.39746C156.646 8.57715 157.979 8.16699 159.414 8.16699C161.659 8.16699 163.436 8.93604 164.746 10.4741C166.068 12.0008 166.729 14.0915 166.729 16.7461V17.8911H153.535V18.2842C153.535 20.3805 154.133 22.1294 155.33 23.5308C156.537 24.9207 158.053 25.6157 159.875 25.6157C160.969 25.6157 161.932 25.4163 162.764 25.0176C163.607 24.6188 164.37 23.9808 165.054 23.1035L166.335 24.0776C164.832 26.2537 162.65 27.3418 159.79 27.3418ZM159.414 9.91016C157.876 9.91016 156.577 10.4741 155.518 11.6021C154.469 12.73 153.831 14.2453 153.604 16.1479H164.695V15.9258C164.638 14.1484 164.131 12.7015 163.174 11.585C162.217 10.4684 160.964 9.91016 159.414 9.91016ZM181.785 22.3003C181.785 21.2863 181.375 20.4717 180.554 19.8564C179.745 19.2412 178.521 18.7627 176.88 18.4209C175.239 18.0677 173.963 17.6689 173.052 17.2246C172.152 16.7689 171.479 16.2163 171.035 15.5669C170.602 14.9175 170.386 14.1313 170.386 13.2085C170.386 11.7502 170.995 10.5482 172.214 9.60254C173.433 8.64551 174.994 8.16699 176.897 8.16699C178.959 8.16699 180.611 8.67969 181.853 9.70508C183.106 10.7191 183.733 12.0464 183.733 13.687H181.682C181.682 12.6047 181.226 11.7046 180.315 10.9868C179.415 10.269 178.276 9.91016 176.897 9.91016C175.553 9.91016 174.47 10.2121 173.65 10.8159C172.841 11.4084 172.437 12.1831 172.437 13.1401C172.437 14.063 172.773 14.7808 173.445 15.2935C174.128 15.7948 175.365 16.2562 177.153 16.6777C178.953 17.0993 180.298 17.5493 181.187 18.0278C182.087 18.5063 182.753 19.0817 183.186 19.7539C183.619 20.4261 183.835 21.2407 183.835 22.1978C183.835 23.7586 183.203 25.0062 181.938 25.9404C180.685 26.8747 179.045 27.3418 177.017 27.3418C174.863 27.3418 173.114 26.8234 171.77 25.7866C170.437 24.7384 169.771 23.4168 169.771 21.8218H171.821C171.901 23.0181 172.402 23.9523 173.325 24.6245C174.259 25.2853 175.49 25.6157 177.017 25.6157C178.441 25.6157 179.591 25.3024 180.469 24.6758C181.346 24.0492 181.785 23.2573 181.785 22.3003ZM200.139 3.7749V8.50879H203.967V10.1836H200.139V22.5054C200.139 23.5308 200.321 24.2941 200.686 24.7954C201.062 25.2967 201.683 25.5474 202.549 25.5474C202.891 25.5474 203.443 25.4904 204.207 25.3765L204.292 27.0513C203.757 27.245 203.027 27.3418 202.104 27.3418C200.703 27.3418 199.683 26.9373 199.045 26.1284C198.407 25.3081 198.088 24.1061 198.088 22.5225V10.1836H194.688V8.50879H198.088V3.7749H200.139ZM219.878 27C219.673 26.4189 219.542 25.5588 219.485 24.4194C218.767 25.3537 217.85 26.0771 216.733 26.5898C215.628 27.0911 214.455 27.3418 213.213 27.3418C211.436 27.3418 209.994 26.8462 208.889 25.855C207.795 24.8638 207.249 23.6105 207.249 22.0952C207.249 20.2951 207.995 18.8709 209.487 17.8228C210.991 16.7746 213.082 16.2505 215.759 16.2505H219.468V14.1484C219.468 12.8268 219.058 11.79 218.237 11.0381C217.428 10.2747 216.243 9.89307 214.683 9.89307C213.258 9.89307 212.079 10.2576 211.145 10.9868C210.211 11.716 209.744 12.5933 209.744 13.6187L207.693 13.6016C207.693 12.1318 208.376 10.8615 209.744 9.79053C211.111 8.70817 212.791 8.16699 214.785 8.16699C216.847 8.16699 218.471 8.68538 219.656 9.72217C220.852 10.7476 221.467 12.1831 221.501 14.0288V22.7788C221.501 24.5675 221.689 25.9062 222.065 26.7949V27H219.878ZM213.452 25.5303C214.819 25.5303 216.038 25.1999 217.109 24.5391C218.192 23.8783 218.978 22.9953 219.468 21.8901V17.8228H215.811C213.771 17.8455 212.176 18.2215 211.025 18.9507C209.875 19.6685 209.299 20.6597 209.299 21.9243C209.299 22.9611 209.681 23.8213 210.444 24.5049C211.219 25.1885 212.222 25.5303 213.452 25.5303ZM235.515 10.252C235.082 10.1722 234.621 10.1323 234.131 10.1323C232.855 10.1323 231.772 10.4912 230.884 11.209C230.007 11.9154 229.38 12.9465 229.004 14.3022V27H226.97V8.50879H228.97L229.004 11.4482C230.086 9.26074 231.824 8.16699 234.216 8.16699C234.786 8.16699 235.236 8.24105 235.566 8.38916L235.515 10.252ZM242.795 3.7749V8.50879H246.624V10.1836H242.795V22.5054C242.795 23.5308 242.978 24.2941 243.342 24.7954C243.718 25.2967 244.339 25.5474 245.205 25.5474C245.547 25.5474 246.099 25.4904 246.863 25.3765L246.948 27.0513C246.413 27.245 245.684 27.3418 244.761 27.3418C243.359 27.3418 242.34 26.9373 241.702 26.1284C241.064 25.3081 240.745 24.1061 240.745 22.5225V10.1836H237.344V8.50879H240.745V3.7749H242.795ZM262.534 27C262.329 26.4189 262.198 25.5588 262.141 24.4194C261.423 25.3537 260.506 26.0771 259.39 26.5898C258.285 27.0911 257.111 27.3418 255.869 27.3418C254.092 27.3418 252.651 26.8462 251.545 25.855C250.452 24.8638 249.905 23.6105 249.905 22.0952C249.905 20.2951 250.651 18.8709 252.144 17.8228C253.647 16.7746 255.738 16.2505 258.416 16.2505H262.124V14.1484C262.124 12.8268 261.714 11.79 260.894 11.0381C260.085 10.2747 258.9 9.89307 257.339 9.89307C255.915 9.89307 254.736 10.2576 253.801 10.9868C252.867 11.716 252.4 12.5933 252.4 13.6187L250.349 13.6016C250.349 12.1318 251.033 10.8615 252.4 9.79053C253.767 8.70817 255.448 8.16699 257.441 8.16699C259.504 8.16699 261.127 8.68538 262.312 9.72217C263.508 10.7476 264.124 12.1831 264.158 14.0288V22.7788C264.158 24.5675 264.346 25.9062 264.722 26.7949V27H262.534ZM256.108 25.5303C257.476 25.5303 258.695 25.1999 259.766 24.5391C260.848 23.8783 261.634 22.9953 262.124 21.8901V17.8228H258.467C256.427 17.8455 254.832 18.2215 253.682 18.9507C252.531 19.6685 251.956 20.6597 251.956 21.9243C251.956 22.9611 252.337 23.8213 253.101 24.5049C253.875 25.1885 254.878 25.5303 256.108 25.5303ZM280.701 22.3003C280.701 21.2863 280.291 20.4717 279.47 19.8564C278.661 19.2412 277.437 18.7627 275.796 18.4209C274.155 18.0677 272.879 17.6689 271.968 17.2246C271.068 16.7689 270.396 16.2163 269.951 15.5669C269.518 14.9175 269.302 14.1313 269.302 13.2085C269.302 11.7502 269.911 10.5482 271.13 9.60254C272.349 8.64551 273.91 8.16699 275.813 8.16699C277.875 8.16699 279.527 8.67969 280.769 9.70508C282.022 10.7191 282.649 12.0464 282.649 13.687H280.598C280.598 12.6047 280.142 11.7046 279.231 10.9868C278.331 10.269 277.192 9.91016 275.813 9.91016C274.469 9.91016 273.386 10.2121 272.566 10.8159C271.757 11.4084 271.353 12.1831 271.353 13.1401C271.353 14.063 271.689 14.7808 272.361 15.2935C273.044 15.7948 274.281 16.2562 276.069 16.6777C277.869 17.0993 279.214 17.5493 280.103 18.0278C281.003 18.5063 281.669 19.0817 282.102 19.7539C282.535 20.4261 282.751 21.2407 282.751 22.1978C282.751 23.7586 282.119 25.0062 280.854 25.9404C279.601 26.8747 277.961 27.3418 275.933 27.3418C273.779 27.3418 272.03 26.8234 270.686 25.7866C269.353 24.7384 268.687 23.4168 268.687 21.8218H270.737C270.817 23.0181 271.318 23.9523 272.241 24.6245C273.175 25.2853 274.406 25.6157 275.933 25.6157C277.357 25.6157 278.507 25.3024 279.385 24.6758C280.262 24.0492 280.701 23.2573 280.701 22.3003ZM295.056 17.5835C295.056 14.7124 295.694 12.4281 296.97 10.7305C298.258 9.02148 300.001 8.16699 302.2 8.16699C304.695 8.16699 306.597 9.15251 307.908 11.1235V0.75H309.941V27H308.027L307.942 24.5391C306.632 26.4076 304.706 27.3418 302.166 27.3418C300.035 27.3418 298.315 26.4873 297.004 24.7783C295.706 23.0579 295.056 20.7394 295.056 17.8228V17.5835ZM297.124 17.9424C297.124 20.3008 297.597 22.1636 298.542 23.5308C299.488 24.8866 300.821 25.5645 302.542 25.5645C305.059 25.5645 306.848 24.4536 307.908 22.2319V13.5503C306.848 11.1463 305.071 9.94434 302.576 9.94434C300.855 9.94434 299.517 10.6222 298.56 11.978C297.603 13.3224 297.124 15.3105 297.124 17.9424ZM322.485 27.3418C320.913 27.3418 319.489 26.9544 318.213 26.1797C316.948 25.4049 315.963 24.3283 315.256 22.9497C314.55 21.5597 314.197 20.0046 314.197 18.2842V17.5493C314.197 15.772 314.539 14.1712 315.222 12.7471C315.917 11.3229 316.88 10.2064 318.11 9.39746C319.341 8.57715 320.674 8.16699 322.109 8.16699C324.354 8.16699 326.131 8.93604 327.441 10.4741C328.763 12.0008 329.424 14.0915 329.424 16.7461V17.8911H316.23V18.2842C316.23 20.3805 316.829 22.1294 318.025 23.5308C319.233 24.9207 320.748 25.6157 322.571 25.6157C323.665 25.6157 324.627 25.4163 325.459 25.0176C326.302 24.6188 327.065 23.9808 327.749 23.1035L329.031 24.0776C327.527 26.2537 325.345 27.3418 322.485 27.3418ZM322.109 9.91016C320.571 9.91016 319.272 10.4741 318.213 11.6021C317.165 12.73 316.527 14.2453 316.299 16.1479H327.39V15.9258C327.333 14.1484 326.826 12.7015 325.869 11.585C324.912 10.4684 323.659 9.91016 322.109 9.91016ZM342.395 27V2.11719H349.744C352.41 2.11719 354.432 2.66976 355.811 3.7749C357.189 4.86865 357.878 6.48649 357.878 8.62842C357.878 9.91585 357.525 11.0381 356.819 11.9951C356.124 12.9408 355.167 13.6187 353.948 14.0288C355.395 14.3478 356.557 15.0599 357.434 16.165C358.323 17.2702 358.767 18.5462 358.767 19.9932C358.767 22.1921 358.055 23.9124 356.631 25.1543C355.218 26.3848 353.247 27 350.718 27H342.395ZM344.497 15.0371V25.2227H350.803C352.603 25.2227 354.028 24.7669 355.076 23.8555C356.135 22.9326 356.665 21.6566 356.665 20.0273C356.665 18.4893 356.158 17.2759 355.144 16.3872C354.141 15.4871 352.751 15.0371 350.974 15.0371H344.497ZM344.497 13.2769H350.239C351.994 13.2427 353.35 12.8325 354.307 12.0464C355.275 11.2489 355.759 10.0924 355.759 8.57715C355.759 6.9821 355.258 5.80859 354.255 5.05664C353.264 4.29329 351.76 3.91162 349.744 3.91162H344.497V13.2769ZM375.054 27C374.849 26.4189 374.718 25.5588 374.661 24.4194C373.943 25.3537 373.026 26.0771 371.909 26.5898C370.804 27.0911 369.631 27.3418 368.389 27.3418C366.611 27.3418 365.17 26.8462 364.065 25.855C362.971 24.8638 362.424 23.6105 362.424 22.0952C362.424 20.2951 363.171 18.8709 364.663 17.8228C366.167 16.7746 368.258 16.2505 370.935 16.2505H374.644V14.1484C374.644 12.8268 374.233 11.79 373.413 11.0381C372.604 10.2747 371.419 9.89307 369.858 9.89307C368.434 9.89307 367.255 10.2576 366.321 10.9868C365.387 11.716 364.919 12.5933 364.919 13.6187L362.869 13.6016C362.869 12.1318 363.552 10.8615 364.919 9.79053C366.287 8.70817 367.967 8.16699 369.961 8.16699C372.023 8.16699 373.647 8.68538 374.832 9.72217C376.028 10.7476 376.643 12.1831 376.677 14.0288V22.7788C376.677 24.5675 376.865 25.9062 377.241 26.7949V27H375.054ZM368.628 25.5303C369.995 25.5303 371.214 25.1999 372.285 24.5391C373.368 23.8783 374.154 22.9953 374.644 21.8901V17.8228H370.986C368.947 17.8455 367.352 18.2215 366.201 18.9507C365.05 19.6685 364.475 20.6597 364.475 21.9243C364.475 22.9611 364.857 23.8213 365.62 24.5049C366.395 25.1885 367.397 25.5303 368.628 25.5303ZM390.691 10.252C390.258 10.1722 389.797 10.1323 389.307 10.1323C388.031 10.1323 386.948 10.4912 386.06 11.209C385.182 11.9154 384.556 12.9465 384.18 14.3022V27H382.146V8.50879H384.146L384.18 11.4482C385.262 9.26074 387 8.16699 389.392 8.16699C389.962 8.16699 390.412 8.24105 390.742 8.38916L390.691 10.252ZM400.432 25.6157C401.856 25.6157 403.047 25.217 404.004 24.4194C404.972 23.6105 405.496 22.568 405.576 21.292H407.542C407.485 22.4199 407.131 23.451 406.482 24.3853C405.833 25.3081 404.967 26.0316 403.884 26.5557C402.813 27.0798 401.663 27.3418 400.432 27.3418C398.005 27.3418 396.08 26.4987 394.656 24.8125C393.243 23.1263 392.537 20.859 392.537 18.0107V17.3955C392.537 15.5726 392.856 13.9604 393.494 12.5591C394.132 11.1577 395.043 10.0754 396.228 9.31201C397.424 8.54867 398.82 8.16699 400.415 8.16699C402.443 8.16699 404.112 8.77083 405.422 9.97852C406.744 11.1862 407.45 12.7756 407.542 14.7466H405.576C405.485 13.2996 404.961 12.1318 404.004 11.2432C403.058 10.3545 401.862 9.91016 400.415 9.91016C398.569 9.91016 397.134 10.5767 396.108 11.9097C395.094 13.2427 394.587 15.1112 394.587 17.5151V18.1133C394.587 20.4717 395.094 22.3117 396.108 23.6333C397.134 24.9549 398.575 25.6157 400.432 25.6157ZM418.804 27.3418C417.231 27.3418 415.807 26.9544 414.531 26.1797C413.267 25.4049 412.281 24.3283 411.575 22.9497C410.868 21.5597 410.515 20.0046 410.515 18.2842V17.5493C410.515 15.772 410.857 14.1712 411.541 12.7471C412.236 11.3229 413.198 10.2064 414.429 9.39746C415.659 8.57715 416.992 8.16699 418.428 8.16699C420.672 8.16699 422.45 8.93604 423.76 10.4741C425.081 12.0008 425.742 14.0915 425.742 16.7461V17.8911H412.549V18.2842C412.549 20.3805 413.147 22.1294 414.343 23.5308C415.551 24.9207 417.066 25.6157 418.889 25.6157C419.983 25.6157 420.946 25.4163 421.777 25.0176C422.62 24.6188 423.384 23.9808 424.067 23.1035L425.349 24.0776C423.845 26.2537 421.663 27.3418 418.804 27.3418ZM418.428 9.91016C416.89 9.91016 415.591 10.4741 414.531 11.6021C413.483 12.73 412.845 14.2453 412.617 16.1479H423.708V15.9258C423.652 14.1484 423.145 12.7015 422.188 11.585C421.23 10.4684 419.977 9.91016 418.428 9.91016ZM432.014 27H429.963V0.75H432.014V27ZM436.458 17.481C436.458 15.7036 436.799 14.1029 437.483 12.6787C438.178 11.2546 439.152 10.1494 440.405 9.36328C441.67 8.56576 443.1 8.16699 444.695 8.16699C447.156 8.16699 449.15 9.03288 450.676 10.7646C452.203 12.485 452.966 14.7694 452.966 17.6177V18.0449C452.966 19.8337 452.619 21.4458 451.924 22.8813C451.24 24.3055 450.272 25.4049 449.019 26.1797C447.765 26.9544 446.335 27.3418 444.729 27.3418C442.279 27.3418 440.286 26.4816 438.748 24.7612C437.221 23.0295 436.458 20.7394 436.458 17.8911V17.481ZM438.508 18.0449C438.508 20.2552 439.078 22.0724 440.217 23.4966C441.368 24.9093 442.872 25.6157 444.729 25.6157C446.575 25.6157 448.067 24.9093 449.207 23.4966C450.357 22.0724 450.933 20.1982 450.933 17.874V17.481C450.933 16.0682 450.671 14.7751 450.146 13.6016C449.622 12.4281 448.888 11.5223 447.942 10.8843C446.996 10.2349 445.914 9.91016 444.695 9.91016C442.872 9.91016 441.385 10.6279 440.234 12.0635C439.084 13.4876 438.508 15.3561 438.508 17.6689V18.0449ZM459.153 8.50879L459.221 11.6704C459.916 10.5311 460.782 9.6652 461.819 9.07275C462.856 8.46891 464.001 8.16699 465.254 8.16699C467.236 8.16699 468.712 8.72526 469.68 9.8418C470.649 10.9583 471.139 12.6331 471.15 14.8662V27H469.116V14.8491C469.105 13.1971 468.752 11.9666 468.057 11.1577C467.373 10.3488 466.274 9.94434 464.758 9.94434C463.494 9.94434 462.371 10.3431 461.392 11.1406C460.423 11.9268 459.705 12.992 459.238 14.3364V27H457.205V8.50879H459.153ZM488.12 27C487.915 26.4189 487.784 25.5588 487.727 24.4194C487.009 25.3537 486.092 26.0771 484.976 26.5898C483.87 27.0911 482.697 27.3418 481.455 27.3418C479.678 27.3418 478.236 26.8462 477.131 25.855C476.038 24.8638 475.491 23.6105 475.491 22.0952C475.491 20.2951 476.237 18.8709 477.729 17.8228C479.233 16.7746 481.324 16.2505 484.001 16.2505H487.71V14.1484C487.71 12.8268 487.3 11.79 486.479 11.0381C485.671 10.2747 484.486 9.89307 482.925 9.89307C481.501 9.89307 480.321 10.2576 479.387 10.9868C478.453 11.716 477.986 12.5933 477.986 13.6187L475.935 13.6016C475.935 12.1318 476.619 10.8615 477.986 9.79053C479.353 8.70817 481.034 8.16699 483.027 8.16699C485.09 8.16699 486.713 8.68538 487.898 9.72217C489.094 10.7476 489.709 12.1831 489.744 14.0288V22.7788C489.744 24.5675 489.932 25.9062 490.308 26.7949V27H488.12ZM481.694 25.5303C483.062 25.5303 484.281 25.1999 485.352 24.5391C486.434 23.8783 487.22 22.9953 487.71 21.8901V17.8228H484.053C482.013 17.8455 480.418 18.2215 479.268 18.9507C478.117 19.6685 477.542 20.6597 477.542 21.9243C477.542 22.9611 477.923 23.8213 478.687 24.5049C479.461 25.1885 480.464 25.5303 481.694 25.5303ZM128.55 58.5835C128.55 55.7124 129.188 53.4281 130.464 51.7305C131.751 50.0215 133.494 49.167 135.693 49.167C138.188 49.167 140.091 50.1525 141.401 52.1235V41.75H143.435V68H141.521L141.436 65.5391C140.125 67.4076 138.2 68.3418 135.659 68.3418C133.529 68.3418 131.808 67.4873 130.498 65.7783C129.199 64.0579 128.55 61.7394 128.55 58.8228V58.5835ZM130.618 58.9424C130.618 61.3008 131.09 63.1636 132.036 64.5308C132.982 65.8866 134.315 66.5645 136.035 66.5645C138.553 66.5645 140.342 65.4536 141.401 63.2319V54.5503C140.342 52.1463 138.564 50.9443 136.069 50.9443C134.349 50.9443 133.01 51.6222 132.053 52.978C131.096 54.3224 130.618 56.3105 130.618 58.9424ZM155.979 68.3418C154.407 68.3418 152.983 67.9544 151.707 67.1797C150.442 66.4049 149.456 65.3283 148.75 63.9497C148.044 62.5597 147.69 61.0046 147.69 59.2842V58.5493C147.69 56.772 148.032 55.1712 148.716 53.7471C149.411 52.3229 150.374 51.2064 151.604 50.3975C152.834 49.5771 154.167 49.167 155.603 49.167C157.847 49.167 159.625 49.936 160.935 51.4741C162.257 53.0008 162.917 55.0915 162.917 57.7461V58.8911H149.724V59.2842C149.724 61.3805 150.322 63.1294 151.519 64.5308C152.726 65.9207 154.242 66.6157 156.064 66.6157C157.158 66.6157 158.121 66.4163 158.953 66.0176C159.796 65.6188 160.559 64.9808 161.243 64.1035L162.524 65.0776C161.021 67.2537 158.839 68.3418 155.979 68.3418ZM155.603 50.9102C154.065 50.9102 152.766 51.4741 151.707 52.6021C150.658 53.73 150.02 55.2453 149.792 57.1479H160.884V56.9258C160.827 55.1484 160.32 53.7015 159.363 52.585C158.406 51.4684 157.153 50.9102 155.603 50.9102ZM177.974 63.3003C177.974 62.2863 177.563 61.4717 176.743 60.8564C175.934 60.2412 174.709 59.7627 173.069 59.4209C171.428 59.0677 170.152 58.6689 169.241 58.2246C168.341 57.7689 167.668 57.2163 167.224 56.5669C166.791 55.9175 166.575 55.1313 166.575 54.2085C166.575 52.7502 167.184 51.5482 168.403 50.6025C169.622 49.6455 171.183 49.167 173.086 49.167C175.148 49.167 176.8 49.6797 178.042 50.7051C179.295 51.7191 179.922 53.0464 179.922 54.687H177.871C177.871 53.6047 177.415 52.7046 176.504 51.9868C175.604 51.269 174.465 50.9102 173.086 50.9102C171.742 50.9102 170.659 51.2121 169.839 51.8159C169.03 52.4084 168.625 53.1831 168.625 54.1401C168.625 55.063 168.962 55.7808 169.634 56.2935C170.317 56.7948 171.554 57.2562 173.342 57.6777C175.142 58.0993 176.487 58.5493 177.375 59.0278C178.276 59.5063 178.942 60.0817 179.375 60.7539C179.808 61.4261 180.024 62.2407 180.024 63.1978C180.024 64.7586 179.392 66.0062 178.127 66.9404C176.874 67.8747 175.234 68.3418 173.206 68.3418C171.052 68.3418 169.303 67.8234 167.959 66.7866C166.626 65.7384 165.959 64.4168 165.959 62.8218H168.01C168.09 64.0181 168.591 64.9523 169.514 65.6245C170.448 66.2853 171.679 66.6157 173.206 66.6157C174.63 66.6157 175.78 66.3024 176.658 65.6758C177.535 65.0492 177.974 64.2573 177.974 63.3003ZM183.818 58.5835C183.818 55.7124 184.456 53.4281 185.732 51.7305C187.02 50.0215 188.763 49.167 190.962 49.167C193.457 49.167 195.36 50.1525 196.67 52.1235V41.75H198.704V68H196.79L196.704 65.5391C195.394 67.4076 193.468 68.3418 190.928 68.3418C188.797 68.3418 187.077 67.4873 185.767 65.7783C184.468 64.0579 183.818 61.7394 183.818 58.8228V58.5835ZM185.886 58.9424C185.886 61.3008 186.359 63.1636 187.305 64.5308C188.25 65.8866 189.583 66.5645 191.304 66.5645C193.822 66.5645 195.61 65.4536 196.67 63.2319V54.5503C195.61 52.1463 193.833 50.9443 191.338 50.9443C189.618 50.9443 188.279 51.6222 187.322 52.978C186.365 54.3224 185.886 56.3105 185.886 58.9424ZM211.248 68.3418C209.675 68.3418 208.251 67.9544 206.975 67.1797C205.71 66.4049 204.725 65.3283 204.019 63.9497C203.312 62.5597 202.959 61.0046 202.959 59.2842V58.5493C202.959 56.772 203.301 55.1712 203.984 53.7471C204.679 52.3229 205.642 51.2064 206.873 50.3975C208.103 49.5771 209.436 49.167 210.872 49.167C213.116 49.167 214.893 49.936 216.204 51.4741C217.525 53.0008 218.186 55.0915 218.186 57.7461V58.8911H204.993V59.2842C204.993 61.3805 205.591 63.1294 206.787 64.5308C207.995 65.9207 209.51 66.6157 211.333 66.6157C212.427 66.6157 213.389 66.4163 214.221 66.0176C215.064 65.6188 215.828 64.9808 216.511 64.1035L217.793 65.0776C216.289 67.2537 214.107 68.3418 211.248 68.3418ZM210.872 50.9102C209.333 50.9102 208.035 51.4741 206.975 52.6021C205.927 53.73 205.289 55.2453 205.061 57.1479H216.152V56.9258C216.095 55.1484 215.588 53.7015 214.631 52.585C213.674 51.4684 212.421 50.9102 210.872 50.9102ZM239.873 68H237.822V45.5781L231.055 48.0903V46.1763L239.531 43.0317H239.873V68ZM262.534 56.4814C261.805 57.5524 260.899 58.3841 259.817 58.9766C258.735 59.5576 257.561 59.8481 256.296 59.8481C254.884 59.8481 253.636 59.4836 252.554 58.7544C251.471 58.0252 250.634 57.0169 250.042 55.7295C249.449 54.4421 249.153 53.035 249.153 51.5083C249.153 49.8677 249.466 48.3752 250.093 47.0308C250.731 45.6864 251.614 44.6439 252.742 43.9033C253.881 43.1514 255.191 42.7754 256.672 42.7754C259.167 42.7754 261.11 43.6527 262.5 45.4072C263.89 47.1504 264.585 49.6284 264.585 52.8413V54.687C264.585 59.1759 263.628 62.5483 261.714 64.8042C259.8 67.0601 256.877 68.188 252.947 68.188H252.571L252.588 66.4106H253.306C256.279 66.3651 258.541 65.522 260.09 63.8813C261.64 62.2407 262.454 59.7741 262.534 56.4814ZM256.553 58.0879C257.92 58.0879 259.145 57.6834 260.227 56.8745C261.321 56.0542 262.096 54.9946 262.551 53.6958V52.5166C262.551 49.9873 262.021 48.0277 260.962 46.6377C259.914 45.2363 258.495 44.5356 256.707 44.5356C255.089 44.5356 253.761 45.1908 252.725 46.501C251.688 47.7998 251.169 49.4404 251.169 51.4229C251.169 53.3255 251.665 54.9149 252.656 56.1909C253.659 57.4556 254.958 58.0879 256.553 58.0879ZM283.845 49.5259C283.845 50.8133 283.469 51.9697 282.717 52.9951C281.965 54.0091 280.974 54.7554 279.744 55.2339C281.179 55.7238 282.33 56.5156 283.196 57.6094C284.062 58.7031 284.495 59.9678 284.495 61.4033C284.495 63.5339 283.771 65.2257 282.324 66.479C280.877 67.7209 278.963 68.3418 276.582 68.3418C274.178 68.3418 272.253 67.7209 270.806 66.479C269.37 65.2371 268.652 63.5452 268.652 61.4033C268.652 59.9906 269.068 58.7316 269.9 57.6265C270.732 56.5213 271.871 55.7238 273.318 55.2339C272.087 54.7554 271.108 54.0091 270.378 52.9951C269.649 51.9697 269.285 50.8133 269.285 49.5259C269.285 47.4637 269.945 45.8231 271.267 44.604C272.6 43.3849 274.36 42.7754 276.548 42.7754C278.735 42.7754 280.496 43.3906 281.829 44.6211C283.173 45.8516 283.845 47.4865 283.845 49.5259ZM282.444 61.4204C282.444 59.8709 281.891 58.6006 280.786 57.6094C279.681 56.6068 278.268 56.1055 276.548 56.1055C274.827 56.1055 273.42 56.5954 272.327 57.5752C271.233 58.555 270.686 59.8368 270.686 61.4204C270.686 63.0041 271.216 64.2687 272.275 65.2144C273.335 66.1486 274.771 66.6157 276.582 66.6157C278.348 66.6157 279.766 66.1486 280.837 65.2144C281.908 64.2801 282.444 63.0155 282.444 61.4204ZM281.794 49.5088C281.794 48.0846 281.299 46.8997 280.308 45.9541C279.328 44.9971 278.075 44.5186 276.548 44.5186C274.998 44.5186 273.739 44.98 272.771 45.9028C271.814 46.8143 271.335 48.0163 271.335 49.5088C271.335 50.9671 271.814 52.1406 272.771 53.0293C273.739 53.918 275.004 54.3623 276.565 54.3623C278.103 54.3623 279.356 53.918 280.325 53.0293C281.305 52.1292 281.794 50.9557 281.794 49.5088ZM289.98 55.251L291.194 43.1172H303.635V45.0142H292.954L292.083 53.4224C293.416 52.5109 294.976 52.0552 296.765 52.0552C299.01 52.0552 300.798 52.7843 302.131 54.2427C303.464 55.701 304.131 57.6436 304.131 60.0703C304.131 62.6908 303.481 64.7244 302.183 66.1714C300.884 67.6183 299.055 68.3418 296.697 68.3418C294.532 68.3418 292.778 67.738 291.433 66.5303C290.089 65.3226 289.32 63.6307 289.126 61.4546H291.091C291.285 63.1522 291.86 64.4396 292.817 65.3169C293.774 66.1828 295.068 66.6157 296.697 66.6157C298.474 66.6157 299.813 66.0518 300.713 64.9238C301.624 63.7959 302.08 62.1895 302.08 60.1045C302.08 58.2816 301.573 56.7948 300.559 55.644C299.545 54.4933 298.161 53.918 296.406 53.918C295.438 53.918 294.595 54.0433 293.877 54.2939C293.159 54.5332 292.402 55.006 291.604 55.7124L289.98 55.251ZM328.518 68C328.313 67.4189 328.182 66.5588 328.125 65.4194C327.407 66.3537 326.49 67.0771 325.374 67.5898C324.268 68.0911 323.095 68.3418 321.853 68.3418C320.076 68.3418 318.634 67.8462 317.529 66.855C316.436 65.8638 315.889 64.6105 315.889 63.0952C315.889 61.2951 316.635 59.8709 318.127 58.8228C319.631 57.7746 321.722 57.2505 324.399 57.2505H328.108V55.1484C328.108 53.8268 327.698 52.79 326.877 52.0381C326.069 51.2747 324.884 50.8931 323.323 50.8931C321.899 50.8931 320.719 51.2576 319.785 51.9868C318.851 52.716 318.384 53.5933 318.384 54.6187L316.333 54.6016C316.333 53.1318 317.017 51.8615 318.384 50.7905C319.751 49.7082 321.431 49.167 323.425 49.167C325.487 49.167 327.111 49.6854 328.296 50.7222C329.492 51.7476 330.107 53.1831 330.142 55.0288V63.7788C330.142 65.5675 330.33 66.9062 330.706 67.7949V68H328.518ZM322.092 66.5303C323.459 66.5303 324.679 66.1999 325.75 65.5391C326.832 64.8783 327.618 63.9953 328.108 62.8901V58.8228H324.451C322.411 58.8455 320.816 59.2215 319.666 59.9507C318.515 60.6685 317.939 61.6597 317.939 62.9243C317.939 63.9611 318.321 64.8213 319.084 65.5049C319.859 66.1885 320.862 66.5303 322.092 66.5303ZM337.559 49.5088L337.627 52.6704C338.322 51.5311 339.188 50.6652 340.225 50.0728C341.261 49.4689 342.406 49.167 343.66 49.167C345.642 49.167 347.118 49.7253 348.086 50.8418C349.054 51.9583 349.544 53.6331 349.556 55.8662V68H347.522V55.8491C347.511 54.1971 347.157 52.9666 346.462 52.1577C345.779 51.3488 344.679 50.9443 343.164 50.9443C341.899 50.9443 340.777 51.3431 339.797 52.1406C338.829 52.9268 338.111 53.992 337.644 55.3364V68H335.61V49.5088H337.559ZM348.599 42.4849C348.599 43.5786 348.274 44.4616 347.625 45.1338C346.986 45.7946 346.2 46.125 345.266 46.125C344.4 46.125 343.551 45.8117 342.72 45.1851C341.899 44.5584 341.165 44.2451 340.515 44.2451C339.98 44.2451 339.53 44.4217 339.165 44.7749C338.812 45.1281 338.635 45.6237 338.635 46.2617L337.097 46.2104C337.097 45.1623 337.405 44.2964 338.02 43.6128C338.647 42.9292 339.45 42.5874 340.43 42.5874C340.977 42.5874 341.444 42.6842 341.831 42.8779C342.218 43.0716 342.583 43.2881 342.925 43.5273C343.267 43.7666 343.608 43.9831 343.95 44.1768C344.303 44.3704 344.714 44.4673 345.181 44.4673C345.705 44.4673 346.149 44.2793 346.514 43.9033C346.89 43.5273 347.078 43.0203 347.078 42.3823L348.599 42.4849ZM353.726 58.481C353.726 56.7036 354.067 55.1029 354.751 53.6787C355.446 52.2546 356.42 51.1494 357.673 50.3633C358.938 49.5658 360.368 49.167 361.963 49.167C364.424 49.167 366.418 50.0329 367.944 51.7646C369.471 53.485 370.234 55.7694 370.234 58.6177V59.0449C370.234 60.8337 369.887 62.4458 369.192 63.8813C368.508 65.3055 367.54 66.4049 366.287 67.1797C365.033 67.9544 363.604 68.3418 361.997 68.3418C359.548 68.3418 357.554 67.4816 356.016 65.7612C354.489 64.0295 353.726 61.7394 353.726 58.8911V58.481ZM355.776 59.0449C355.776 61.2552 356.346 63.0724 357.485 64.4966C358.636 65.9093 360.14 66.6157 361.997 66.6157C363.843 66.6157 365.335 65.9093 366.475 64.4966C367.625 63.0724 368.201 61.1982 368.201 58.874V58.481C368.201 57.0682 367.939 55.7751 367.415 54.6016C366.89 53.4281 366.156 52.5223 365.21 51.8843C364.264 51.2349 363.182 50.9102 361.963 50.9102C360.14 50.9102 358.653 51.6279 357.502 53.0635C356.352 54.4876 355.776 56.3561 355.776 58.6689V59.0449Z" fill="#E209F5"/>
</svg>
