<svg width="42" height="10" viewBox="0 0 42 10" fill="none" xmlns="http://www.w3.org/2000/svg">
<path d="M4.32422 7.50586L6.76172 0.46875H7.99219L4.82812 9H3.83203L0.673828 0.46875H1.89844L4.32422 7.50586ZM10.3477 9H9.22266V0.46875H10.3477V9ZM12.4102 9V0.46875H14.8184C15.5605 0.46875 16.2168 0.632812 16.7871 0.960938C17.3574 1.28906 17.7969 1.75586 18.1055 2.36133C18.418 2.9668 18.5762 3.66211 18.5801 4.44727V4.99219C18.5801 5.79688 18.4238 6.50195 18.1113 7.10742C17.8027 7.71289 17.3594 8.17773 16.7812 8.50195C16.207 8.82617 15.5371 8.99219 14.7715 9H12.4102ZM13.5352 1.39453V8.08008H14.7188C15.5859 8.08008 16.2598 7.81055 16.7402 7.27148C17.2246 6.73242 17.4668 5.96484 17.4668 4.96875V4.4707C17.4668 3.50195 17.2383 2.75 16.7812 2.21484C16.3281 1.67578 15.6836 1.40234 14.8477 1.39453H13.5352ZM25.1074 5.05664H21.4102V8.08008H25.7051V9H20.2852V0.46875H25.6465V1.39453H21.4102V4.13672H25.1074V5.05664ZM33.668 5.00977C33.668 5.8457 33.5273 6.57617 33.2461 7.20117C32.9648 7.82227 32.5664 8.29688 32.0508 8.625C31.5352 8.95312 30.9336 9.11719 30.2461 9.11719C29.5742 9.11719 28.9785 8.95312 28.459 8.625C27.9395 8.29297 27.5352 7.82227 27.2461 7.21289C26.9609 6.59961 26.8145 5.89062 26.8066 5.08594V4.4707C26.8066 3.65039 26.9492 2.92578 27.2344 2.29688C27.5195 1.66797 27.9219 1.1875 28.4414 0.855469C28.9648 0.519531 29.5625 0.351562 30.2344 0.351562C30.918 0.351562 31.5195 0.517578 32.0391 0.849609C32.5625 1.17773 32.9648 1.65625 33.2461 2.28516C33.5273 2.91016 33.668 3.63867 33.668 4.4707V5.00977ZM32.5488 4.45898C32.5488 3.44727 32.3457 2.67188 31.9395 2.13281C31.5332 1.58984 30.9648 1.31836 30.2344 1.31836C29.5234 1.31836 28.9629 1.58984 28.5527 2.13281C28.1465 2.67188 27.9375 3.42188 27.9258 4.38281V5.00977C27.9258 5.99023 28.1309 6.76172 28.541 7.32422C28.9551 7.88281 29.5234 8.16211 30.2461 8.16211C30.9727 8.16211 31.5352 7.89844 31.9336 7.37109C32.332 6.83984 32.5371 6.08008 32.5488 5.0918V4.45898ZM37.8691 5.19727C36.9043 4.91992 36.2012 4.58008 35.7598 4.17773C35.3223 3.77148 35.1035 3.27148 35.1035 2.67773C35.1035 2.00586 35.3711 1.45117 35.9062 1.01367C36.4453 0.572266 37.1445 0.351562 38.0039 0.351562C38.5898 0.351562 39.1113 0.464844 39.5684 0.691406C40.0293 0.917969 40.3848 1.23047 40.6348 1.62891C40.8887 2.02734 41.0156 2.46289 41.0156 2.93555H39.8848C39.8848 2.41992 39.7207 2.01562 39.3926 1.72266C39.0645 1.42578 38.6016 1.27734 38.0039 1.27734C37.4492 1.27734 37.0156 1.40039 36.7031 1.64648C36.3945 1.88867 36.2402 2.22656 36.2402 2.66016C36.2402 3.00781 36.3867 3.30273 36.6797 3.54492C36.9766 3.7832 37.4785 4.00195 38.1855 4.20117C38.8965 4.40039 39.4512 4.62109 39.8496 4.86328C40.252 5.10156 40.5488 5.38086 40.7402 5.70117C40.9355 6.02148 41.0332 6.39844 41.0332 6.83203C41.0332 7.52344 40.7637 8.07812 40.2246 8.49609C39.6855 8.91016 38.9648 9.11719 38.0625 9.11719C37.4766 9.11719 36.9297 9.00586 36.4219 8.7832C35.9141 8.55664 35.5215 8.24805 35.2441 7.85742C34.9707 7.4668 34.834 7.02344 34.834 6.52734H35.9648C35.9648 7.04297 36.1543 7.45117 36.5332 7.75195C36.916 8.04883 37.4258 8.19727 38.0625 8.19727C38.6562 8.19727 39.1113 8.07617 39.4277 7.83398C39.7441 7.5918 39.9023 7.26172 39.9023 6.84375C39.9023 6.42578 39.7559 6.10352 39.4629 5.87695C39.1699 5.64648 38.6387 5.41992 37.8691 5.19727Z" fill="#FFFBFB"/>
</svg>
