<svg width="217" height="37" viewBox="0 0 217 37" fill="none" xmlns="http://www.w3.org/2000/svg">
<path d="M0.242188 36L6.17188 1.875H14.7734C18.1484 1.90625 20.6719 2.69531 22.3438 4.24219C24.0312 5.78906 24.6562 7.91406 24.2188 10.6172C23.875 12.6172 23.0859 14.2969 21.8516 15.6562C20.6172 17 19.0156 17.9062 17.0469 18.375C19.0469 18.7188 20.6094 19.6719 21.7344 21.2344C22.8594 22.7969 23.2656 24.5859 22.9531 26.6016C22.5 29.4609 21.1719 31.7422 18.9688 33.4453C16.7656 35.1484 14.0703 36 10.8828 36H0.242188ZM4.4375 19.1484L1.74219 34.7344H10.8594C13.7188 34.7344 16.1172 34.0078 18.0547 32.5547C20.0078 31.1016 21.2188 29.1328 21.6875 26.6484C22.0938 24.4297 21.5703 22.625 20.1172 21.2344C18.6797 19.8438 16.6328 19.1484 13.9766 19.1484H4.4375ZM4.64844 17.8828H12.0781C15.1406 17.8828 17.6016 17.2578 19.4609 16.0078C21.3359 14.7422 22.5 12.9141 22.9531 10.5234C23.375 8.24219 22.8984 6.46094 21.5234 5.17969C20.1484 3.89844 17.9688 3.21875 14.9844 3.14062H7.22656L4.64844 17.8828ZM29.5156 36H28.25L32.6094 10.6406H33.875L29.5156 36ZM33.3594 2.67188C33.4062 2.35938 33.5703 2.07031 33.8516 1.80469C34.1484 1.53906 34.4609 1.40625 34.7891 1.40625C35.1484 1.40625 35.4375 1.54688 35.6562 1.82812C35.8906 2.10938 35.9766 2.42187 35.9141 2.76562C35.8672 3.07812 35.6953 3.36719 35.3984 3.63281C35.1016 3.88281 34.7891 4.00781 34.4609 4.00781C34.1016 3.99219 33.8125 3.85156 33.5938 3.58594C33.375 3.32031 33.2969 3.01563 33.3594 2.67188ZM47.0469 36.4688C45.0156 36.4688 43.2656 35.8984 41.7969 34.7578C40.3281 33.6172 39.2656 32.0625 38.6094 30.0938C37.9688 28.1094 37.8047 26.0312 38.1172 23.8594L38.3047 22.6875C38.6797 20.4062 39.4766 18.2734 40.6953 16.2891C41.9297 14.3047 43.3906 12.7891 45.0781 11.7422C46.7656 10.6953 48.5703 10.1719 50.4922 10.1719C53.0547 10.1719 55.0625 11.1172 56.5156 13.0078C57.9688 14.8984 58.5859 17.3203 58.3672 20.2734L58.2969 21L58.0859 22.4766H39.6641L39.4062 23.8594C39.1875 25.1719 39.1797 26.5 39.3828 27.8438C39.7266 30.0781 40.5781 31.8672 41.9375 33.2109C43.3125 34.5391 45.0078 35.2109 47.0234 35.2266C49.9453 35.2578 52.5781 34.1016 54.9219 31.7578L55.7656 32.4141C53.4531 35.1172 50.5469 36.4688 47.0469 36.4688ZM50.4922 11.4375C48.0859 11.4375 45.9297 12.3438 44.0234 14.1562C42.1328 15.9531 40.7266 18.3047 39.8047 21.2109H56.9141L56.9844 20.9062C57.1875 19.7812 57.2031 18.6562 57.0312 17.5312C56.75 15.6875 56.0156 14.2109 54.8281 13.1016C53.6562 11.9922 52.2109 11.4375 50.4922 11.4375ZM66.0312 16.5469C67.2969 14.5 68.7891 12.9297 70.5078 11.8359C72.2266 10.7266 74 10.1719 75.8281 10.1719C77.7656 10.1719 79.2891 10.6719 80.3984 11.6719C81.5078 12.6719 82.1484 14.1172 82.3203 16.0078C82.4141 17.1953 82.3516 18.4375 82.1328 19.7344L79.3203 36H78.0547L80.8672 19.7344C81.0547 18.6406 81.1328 17.5625 81.1016 16.5C81.0234 14.8438 80.5312 13.5781 79.625 12.7031C78.7344 11.8281 77.4531 11.3984 75.7812 11.4141C73.6406 11.4453 71.5781 12.2812 69.5938 13.9219C67.625 15.5469 66.2891 17.4922 65.5859 19.7578L62.7734 36H61.5078L65.8672 10.6406H67.1328L66.0312 16.5469ZM94.9766 33.9375L107.469 10.6641H108.852L95.375 36H94.1328L88.4844 10.6172H89.7969L94.9766 33.9375ZM118.672 36.4688C116.641 36.4688 114.891 35.8984 113.422 34.7578C111.953 33.6172 110.891 32.0625 110.234 30.0938C109.594 28.1094 109.43 26.0312 109.742 23.8594L109.93 22.6875C110.305 20.4062 111.102 18.2734 112.32 16.2891C113.555 14.3047 115.016 12.7891 116.703 11.7422C118.391 10.6953 120.195 10.1719 122.117 10.1719C124.68 10.1719 126.688 11.1172 128.141 13.0078C129.594 14.8984 130.211 17.3203 129.992 20.2734L129.922 21L129.711 22.4766H111.289L111.031 23.8594C110.812 25.1719 110.805 26.5 111.008 27.8438C111.352 30.0781 112.203 31.8672 113.562 33.2109C114.938 34.5391 116.633 35.2109 118.648 35.2266C121.57 35.2578 124.203 34.1016 126.547 31.7578L127.391 32.4141C125.078 35.1172 122.172 36.4688 118.672 36.4688ZM122.117 11.4375C119.711 11.4375 117.555 12.3438 115.648 14.1562C113.758 15.9531 112.352 18.3047 111.43 21.2109H128.539L128.609 20.9062C128.812 19.7812 128.828 18.6562 128.656 17.5312C128.375 15.6875 127.641 14.2109 126.453 13.1016C125.281 11.9922 123.836 11.4375 122.117 11.4375ZM137.656 16.5469C138.922 14.5 140.414 12.9297 142.133 11.8359C143.852 10.7266 145.625 10.1719 147.453 10.1719C149.391 10.1719 150.914 10.6719 152.023 11.6719C153.133 12.6719 153.773 14.1172 153.945 16.0078C154.039 17.1953 153.977 18.4375 153.758 19.7344L150.945 36H149.68L152.492 19.7344C152.68 18.6406 152.758 17.5625 152.727 16.5C152.648 14.8438 152.156 13.5781 151.25 12.7031C150.359 11.8281 149.078 11.3984 147.406 11.4141C145.266 11.4453 143.203 12.2812 141.219 13.9219C139.25 15.5469 137.914 17.4922 137.211 19.7578L134.398 36H133.133L137.492 10.6406H138.758L137.656 16.5469ZM160.438 36H159.172L163.531 10.6406H164.797L160.438 36ZM164.281 2.67188C164.328 2.35938 164.492 2.07031 164.773 1.80469C165.07 1.53906 165.383 1.40625 165.711 1.40625C166.07 1.40625 166.359 1.54688 166.578 1.82812C166.812 2.10938 166.898 2.42187 166.836 2.76562C166.789 3.07812 166.617 3.36719 166.32 3.63281C166.023 3.88281 165.711 4.00781 165.383 4.00781C165.023 3.99219 164.734 3.85156 164.516 3.58594C164.297 3.32031 164.219 3.01563 164.281 2.67188ZM169.836 23.0625C170.273 20.5156 171.039 18.2344 172.133 16.2188C173.242 14.2031 174.578 12.6953 176.141 11.6953C177.703 10.6797 179.406 10.1719 181.25 10.1719C183.031 10.1719 184.578 10.6172 185.891 11.5078C187.219 12.3984 188.18 13.6641 188.773 15.3047L191.445 0H192.711L186.5 36H185.234L186.031 31.9453C184.906 33.3672 183.562 34.4766 182 35.2734C180.438 36.0703 178.734 36.4688 176.891 36.4688C175.234 36.4688 173.844 36.0625 172.719 35.25C171.594 34.4219 170.758 33.2188 170.211 31.6406C169.68 30.0469 169.445 28.2969 169.508 26.3906C169.539 25.5 169.648 24.3906 169.836 23.0625ZM170.797 26.0391C170.672 27.7578 170.805 29.3359 171.195 30.7734C171.586 32.2109 172.258 33.3125 173.211 34.0781C174.18 34.8281 175.391 35.2031 176.844 35.2031C178.875 35.2188 180.695 34.7344 182.305 33.75C183.93 32.7656 185.258 31.4219 186.289 29.7188L188.398 17.8359C188.07 15.8047 187.281 14.2344 186.031 13.125C184.797 12 183.203 11.4375 181.25 11.4375C179.266 11.4375 177.5 12.1016 175.953 13.4297C174.406 14.7422 173.195 16.5703 172.32 18.9141C171.445 21.2578 170.938 23.6328 170.797 26.0391ZM194.844 22.8281C195.234 20.4688 196.023 18.3203 197.211 16.3828C198.398 14.4453 199.883 12.9297 201.664 11.8359C203.445 10.7266 205.391 10.1719 207.5 10.1719C209.219 10.1719 210.742 10.5547 212.07 11.3203C213.398 12.0859 214.453 13.2266 215.234 14.7422C216.016 16.2422 216.461 17.9062 216.57 19.7344C216.617 20.7969 216.523 22.1562 216.289 23.8125C215.898 26.1719 215.102 28.3281 213.898 30.2812C212.711 32.2344 211.227 33.7578 209.445 34.8516C207.68 35.9297 205.75 36.4688 203.656 36.4688C201.922 36.4688 200.391 36.0859 199.062 35.3203C197.75 34.5391 196.695 33.4062 195.898 31.9219C195.117 30.4219 194.68 28.7422 194.586 26.8828C194.523 25.8359 194.609 24.4844 194.844 22.8281ZM195.945 27.8438C196.258 30.1094 197.094 31.9062 198.453 33.2344C199.812 34.5469 201.539 35.2031 203.633 35.2031C206.086 35.2031 208.297 34.3438 210.266 32.625C212.25 30.9062 213.68 28.5859 214.555 25.6641C215.273 23.2422 215.484 20.9531 215.188 18.7969C214.844 16.5312 213.992 14.7422 212.633 13.4297C211.289 12.1016 209.586 11.4375 207.523 11.4375C205.07 11.4375 202.852 12.3125 200.867 14.0625C198.883 15.7969 197.453 18.1016 196.578 20.9766C195.859 23.3672 195.648 25.6562 195.945 27.8438Z" fill="black"/>
</svg>
