<svg width="378" height="16" viewBox="0 0 378 16" fill="none" xmlns="http://www.w3.org/2000/svg">
<path d="M11.5664 2.32422H6.99609V15H5.13086V2.32422H0.570312V0.78125H11.5664V2.32422ZM11.9375 9.61914C11.9375 8.58398 12.1393 7.65299 12.543 6.82617C12.9531 5.99935 13.5195 5.36133 14.2422 4.91211C14.9714 4.46289 15.8014 4.23828 16.7324 4.23828C18.1712 4.23828 19.3333 4.73633 20.2188 5.73242C21.1107 6.72852 21.5566 8.05339 21.5566 9.70703V9.83398C21.5566 10.8626 21.3581 11.7871 20.9609 12.6074C20.5703 13.4212 20.0072 14.056 19.2715 14.5117C18.5423 14.9674 17.7025 15.1953 16.752 15.1953C15.3197 15.1953 14.1576 14.6973 13.2656 13.7012C12.3802 12.7051 11.9375 11.3867 11.9375 9.74609V9.61914ZM13.7539 9.83398C13.7539 11.0059 14.0241 11.9466 14.5645 12.6562C15.1113 13.3659 15.8405 13.7207 16.752 13.7207C17.6699 13.7207 18.3991 13.3626 18.9395 12.6465C19.4798 11.9238 19.75 10.9147 19.75 9.61914C19.75 8.46029 19.4733 7.52279 18.9199 6.80664C18.373 6.08398 17.6439 5.72266 16.7324 5.72266C15.8405 5.72266 15.1211 6.07747 14.5742 6.78711C14.0273 7.49674 13.7539 8.51237 13.7539 9.83398ZM23.3828 9.62891C23.3828 8.00781 23.7669 6.70573 24.5352 5.72266C25.3034 4.73307 26.3092 4.23828 27.5527 4.23828C28.7897 4.23828 29.7695 4.66146 30.4922 5.50781V0H32.2988V15H30.6387L30.5508 13.8672C29.8281 14.7526 28.8223 15.1953 27.5332 15.1953C26.3092 15.1953 25.3099 14.694 24.5352 13.6914C23.7669 12.6888 23.3828 11.3802 23.3828 9.76562V9.62891ZM25.1895 9.83398C25.1895 11.0319 25.4368 11.9694 25.9316 12.6465C26.4264 13.3236 27.11 13.6621 27.9824 13.6621C29.1283 13.6621 29.9648 13.1478 30.4922 12.1191V7.26562C29.9518 6.26953 29.1217 5.77148 28.002 5.77148C27.1165 5.77148 26.4264 6.11328 25.9316 6.79688C25.4368 7.48047 25.1895 8.49284 25.1895 9.83398ZM34.6328 9.61914C34.6328 8.58398 34.8346 7.65299 35.2383 6.82617C35.6484 5.99935 36.2148 5.36133 36.9375 4.91211C37.6667 4.46289 38.4967 4.23828 39.4277 4.23828C40.8665 4.23828 42.0286 4.73633 42.9141 5.73242C43.806 6.72852 44.252 8.05339 44.252 9.70703V9.83398C44.252 10.8626 44.0534 11.7871 43.6562 12.6074C43.2656 13.4212 42.7025 14.056 41.9668 14.5117C41.2376 14.9674 40.3978 15.1953 39.4473 15.1953C38.015 15.1953 36.8529 14.6973 35.9609 13.7012C35.0755 12.7051 34.6328 11.3867 34.6328 9.74609V9.61914ZM36.4492 9.83398C36.4492 11.0059 36.7194 11.9466 37.2598 12.6562C37.8066 13.3659 38.5358 13.7207 39.4473 13.7207C40.3652 13.7207 41.0944 13.3626 41.6348 12.6465C42.1751 11.9238 42.4453 10.9147 42.4453 9.61914C42.4453 8.46029 42.1686 7.52279 41.6152 6.80664C41.0684 6.08398 40.3392 5.72266 39.4277 5.72266C38.5358 5.72266 37.8164 6.07747 37.2695 6.78711C36.7227 7.49674 36.4492 8.51237 36.4492 9.83398ZM52.6699 12.1973C52.6699 11.709 52.4844 11.3314 52.1133 11.0645C51.7487 10.791 51.1074 10.5566 50.1895 10.3613C49.278 10.166 48.5521 9.93164 48.0117 9.6582C47.4779 9.38477 47.0807 9.05924 46.8203 8.68164C46.5664 8.30404 46.4395 7.85482 46.4395 7.33398C46.4395 6.4681 46.804 5.73568 47.5332 5.13672C48.2689 4.53776 49.2064 4.23828 50.3457 4.23828C51.5436 4.23828 52.5137 4.54753 53.2559 5.16602C54.0046 5.78451 54.3789 6.57552 54.3789 7.53906H52.5625C52.5625 7.04427 52.3509 6.61784 51.9277 6.25977C51.5111 5.90169 50.9837 5.72266 50.3457 5.72266C49.6882 5.72266 49.1738 5.86589 48.8027 6.15234C48.4316 6.4388 48.2461 6.81315 48.2461 7.27539C48.2461 7.71159 48.4186 8.04036 48.7637 8.26172C49.1087 8.48307 49.7305 8.69466 50.6289 8.89648C51.5339 9.09831 52.2663 9.33919 52.8262 9.61914C53.3861 9.89909 53.7995 10.2376 54.0664 10.6348C54.3398 11.0254 54.4766 11.5039 54.4766 12.0703C54.4766 13.0143 54.099 13.7728 53.3438 14.3457C52.5885 14.9121 51.6087 15.1953 50.4043 15.1953C49.5579 15.1953 48.8092 15.0456 48.1582 14.7461C47.5072 14.4466 46.9961 14.0299 46.625 13.4961C46.2604 12.9557 46.0781 12.373 46.0781 11.748H47.8848C47.9173 12.3535 48.1582 12.8353 48.6074 13.1934C49.0632 13.5449 49.6621 13.7207 50.4043 13.7207C51.0879 13.7207 51.6348 13.584 52.0449 13.3105C52.4616 13.0306 52.6699 12.6595 52.6699 12.1973ZM63.7539 15H61.9473V0H63.7539V15ZM66.1758 9.61914C66.1758 8.58398 66.3776 7.65299 66.7812 6.82617C67.1914 5.99935 67.7578 5.36133 68.4805 4.91211C69.2096 4.46289 70.0397 4.23828 70.9707 4.23828C72.4095 4.23828 73.5716 4.73633 74.457 5.73242C75.349 6.72852 75.7949 8.05339 75.7949 9.70703V9.83398C75.7949 10.8626 75.5964 11.7871 75.1992 12.6074C74.8086 13.4212 74.2454 14.056 73.5098 14.5117C72.7806 14.9674 71.9408 15.1953 70.9902 15.1953C69.5579 15.1953 68.3958 14.6973 67.5039 13.7012C66.6185 12.7051 66.1758 11.3867 66.1758 9.74609V9.61914ZM67.9922 9.83398C67.9922 11.0059 68.2624 11.9466 68.8027 12.6562C69.3496 13.3659 70.0788 13.7207 70.9902 13.7207C71.9082 13.7207 72.6374 13.3626 73.1777 12.6465C73.7181 11.9238 73.9883 10.9147 73.9883 9.61914C73.9883 8.46029 73.7116 7.52279 73.1582 6.80664C72.6113 6.08398 71.8822 5.72266 70.9707 5.72266C70.0788 5.72266 69.3594 6.07747 68.8125 6.78711C68.2656 7.49674 67.9922 8.51237 67.9922 9.83398ZM84.2129 12.1973C84.2129 11.709 84.0273 11.3314 83.6562 11.0645C83.2917 10.791 82.6504 10.5566 81.7324 10.3613C80.821 10.166 80.0951 9.93164 79.5547 9.6582C79.0208 9.38477 78.6237 9.05924 78.3633 8.68164C78.1094 8.30404 77.9824 7.85482 77.9824 7.33398C77.9824 6.4681 78.347 5.73568 79.0762 5.13672C79.8118 4.53776 80.7493 4.23828 81.8887 4.23828C83.0866 4.23828 84.0566 4.54753 84.7988 5.16602C85.5475 5.78451 85.9219 6.57552 85.9219 7.53906H84.1055C84.1055 7.04427 83.8939 6.61784 83.4707 6.25977C83.054 5.90169 82.5267 5.72266 81.8887 5.72266C81.2311 5.72266 80.7168 5.86589 80.3457 6.15234C79.9746 6.4388 79.7891 6.81315 79.7891 7.27539C79.7891 7.71159 79.9616 8.04036 80.3066 8.26172C80.6517 8.48307 81.2734 8.69466 82.1719 8.89648C83.0768 9.09831 83.8092 9.33919 84.3691 9.61914C84.929 9.89909 85.3424 10.2376 85.6094 10.6348C85.8828 11.0254 86.0195 11.5039 86.0195 12.0703C86.0195 13.0143 85.6419 13.7728 84.8867 14.3457C84.1315 14.9121 83.1517 15.1953 81.9473 15.1953C81.1009 15.1953 80.3522 15.0456 79.7012 14.7461C79.0501 14.4466 78.5391 14.0299 78.168 13.4961C77.8034 12.9557 77.6211 12.373 77.6211 11.748H79.4277C79.4603 12.3535 79.7012 12.8353 80.1504 13.1934C80.6061 13.5449 81.2051 13.7207 81.9473 13.7207C82.6309 13.7207 83.1777 13.584 83.5879 13.3105C84.0046 13.0306 84.2129 12.6595 84.2129 12.1973ZM92.8945 9.62891C92.8945 8.00781 93.2786 6.70573 94.0469 5.72266C94.8151 4.73307 95.821 4.23828 97.0645 4.23828C98.3014 4.23828 99.2812 4.66146 100.004 5.50781V0H101.811V15H100.15L100.062 13.8672C99.3398 14.7526 98.334 15.1953 97.0449 15.1953C95.821 15.1953 94.8216 14.694 94.0469 13.6914C93.2786 12.6888 92.8945 11.3802 92.8945 9.76562V9.62891ZM94.7012 9.83398C94.7012 11.0319 94.9486 11.9694 95.4434 12.6465C95.9382 13.3236 96.6217 13.6621 97.4941 13.6621C98.64 13.6621 99.4766 13.1478 100.004 12.1191V7.26562C99.4635 6.26953 98.6335 5.77148 97.5137 5.77148C96.6283 5.77148 95.9382 6.11328 95.4434 6.79688C94.9486 7.48047 94.7012 8.49284 94.7012 9.83398ZM109.008 15.1953C107.576 15.1953 106.41 14.7266 105.512 13.7891C104.613 12.8451 104.164 11.5853 104.164 10.0098V9.67773C104.164 8.62956 104.363 7.69531 104.76 6.875C105.163 6.04818 105.723 5.40365 106.439 4.94141C107.162 4.47266 107.943 4.23828 108.783 4.23828C110.157 4.23828 111.225 4.69076 111.986 5.5957C112.748 6.50065 113.129 7.79622 113.129 9.48242V10.2344H105.971C105.997 11.276 106.299 12.1191 106.879 12.7637C107.465 13.4017 108.207 13.7207 109.105 13.7207C109.743 13.7207 110.284 13.5905 110.727 13.3301C111.169 13.0697 111.557 12.7246 111.889 12.2949L112.992 13.1543C112.107 14.515 110.779 15.1953 109.008 15.1953ZM108.783 5.72266C108.054 5.72266 107.442 5.98958 106.947 6.52344C106.452 7.05078 106.146 7.79297 106.029 8.75H111.322V8.61328C111.27 7.69531 111.023 6.98568 110.58 6.48438C110.137 5.97656 109.538 5.72266 108.783 5.72266ZM120.336 6.05469C120.062 6.00911 119.766 5.98633 119.447 5.98633C118.262 5.98633 117.458 6.49089 117.035 7.5V15H115.229V4.43359H116.986L117.016 5.6543C117.608 4.71029 118.448 4.23828 119.535 4.23828C119.887 4.23828 120.154 4.28385 120.336 4.375V6.05469ZM126.195 15.1953C124.763 15.1953 123.598 14.7266 122.699 13.7891C121.801 12.8451 121.352 11.5853 121.352 10.0098V9.67773C121.352 8.62956 121.55 7.69531 121.947 6.875C122.351 6.04818 122.911 5.40365 123.627 4.94141C124.35 4.47266 125.131 4.23828 125.971 4.23828C127.344 4.23828 128.412 4.69076 129.174 5.5957C129.936 6.50065 130.316 7.79622 130.316 9.48242V10.2344H123.158C123.184 11.276 123.487 12.1191 124.066 12.7637C124.652 13.4017 125.395 13.7207 126.293 13.7207C126.931 13.7207 127.471 13.5905 127.914 13.3301C128.357 13.0697 128.744 12.7246 129.076 12.2949L130.18 13.1543C129.294 14.515 127.966 15.1953 126.195 15.1953ZM125.971 5.72266C125.242 5.72266 124.63 5.98958 124.135 6.52344C123.64 7.05078 123.334 7.79297 123.217 8.75H128.51V8.61328C128.458 7.69531 128.21 6.98568 127.768 6.48438C127.325 5.97656 126.726 5.72266 125.971 5.72266ZM136.654 13.7207C137.299 13.7207 137.862 13.5254 138.344 13.1348C138.826 12.7441 139.092 12.2559 139.145 11.6699H140.854C140.821 12.2754 140.613 12.8516 140.229 13.3984C139.844 13.9453 139.33 14.3815 138.686 14.707C138.048 15.0326 137.37 15.1953 136.654 15.1953C135.215 15.1953 134.07 14.7168 133.217 13.7598C132.37 12.7962 131.947 11.4811 131.947 9.81445V9.51172C131.947 8.48307 132.136 7.56836 132.514 6.76758C132.891 5.9668 133.432 5.34505 134.135 4.90234C134.844 4.45964 135.681 4.23828 136.645 4.23828C137.829 4.23828 138.812 4.5931 139.594 5.30273C140.382 6.01237 140.801 6.93359 140.854 8.06641H139.145C139.092 7.38281 138.832 6.82292 138.363 6.38672C137.901 5.94401 137.328 5.72266 136.645 5.72266C135.727 5.72266 135.014 6.05469 134.506 6.71875C134.005 7.3763 133.754 8.33008 133.754 9.58008V9.92188C133.754 11.1393 134.005 12.0768 134.506 12.7344C135.007 13.3919 135.723 13.7207 136.654 13.7207ZM144.691 5.71289C145.492 4.72982 146.534 4.23828 147.816 4.23828C150.049 4.23828 151.176 5.49805 151.195 8.01758V15H149.389V8.00781C149.382 7.24609 149.206 6.68294 148.861 6.31836C148.523 5.95378 147.992 5.77148 147.27 5.77148C146.684 5.77148 146.169 5.92773 145.727 6.24023C145.284 6.55273 144.939 6.96289 144.691 7.4707V15H142.885V0H144.691V5.71289ZM153.422 9.61914C153.422 8.58398 153.624 7.65299 154.027 6.82617C154.438 5.99935 155.004 5.36133 155.727 4.91211C156.456 4.46289 157.286 4.23828 158.217 4.23828C159.656 4.23828 160.818 4.73633 161.703 5.73242C162.595 6.72852 163.041 8.05339 163.041 9.70703V9.83398C163.041 10.8626 162.842 11.7871 162.445 12.6074C162.055 13.4212 161.492 14.056 160.756 14.5117C160.027 14.9674 159.187 15.1953 158.236 15.1953C156.804 15.1953 155.642 14.6973 154.75 13.7012C153.865 12.7051 153.422 11.3867 153.422 9.74609V9.61914ZM155.238 9.83398C155.238 11.0059 155.508 11.9466 156.049 12.6562C156.596 13.3659 157.325 13.7207 158.236 13.7207C159.154 13.7207 159.883 13.3626 160.424 12.6465C160.964 11.9238 161.234 10.9147 161.234 9.61914C161.234 8.46029 160.958 7.52279 160.404 6.80664C159.857 6.08398 159.128 5.72266 158.217 5.72266C157.325 5.72266 156.605 6.07747 156.059 6.78711C155.512 7.49674 155.238 8.51237 155.238 9.83398ZM171.459 12.1973C171.459 11.709 171.273 11.3314 170.902 11.0645C170.538 10.791 169.896 10.5566 168.979 10.3613C168.067 10.166 167.341 9.93164 166.801 9.6582C166.267 9.38477 165.87 9.05924 165.609 8.68164C165.355 8.30404 165.229 7.85482 165.229 7.33398C165.229 6.4681 165.593 5.73568 166.322 5.13672C167.058 4.53776 167.995 4.23828 169.135 4.23828C170.333 4.23828 171.303 4.54753 172.045 5.16602C172.794 5.78451 173.168 6.57552 173.168 7.53906H171.352C171.352 7.04427 171.14 6.61784 170.717 6.25977C170.3 5.90169 169.773 5.72266 169.135 5.72266C168.477 5.72266 167.963 5.86589 167.592 6.15234C167.221 6.4388 167.035 6.81315 167.035 7.27539C167.035 7.71159 167.208 8.04036 167.553 8.26172C167.898 8.48307 168.52 8.69466 169.418 8.89648C170.323 9.09831 171.055 9.33919 171.615 9.61914C172.175 9.89909 172.589 10.2376 172.855 10.6348C173.129 11.0254 173.266 11.5039 173.266 12.0703C173.266 13.0143 172.888 13.7728 172.133 14.3457C171.378 14.9121 170.398 15.1953 169.193 15.1953C168.347 15.1953 167.598 15.0456 166.947 14.7461C166.296 14.4466 165.785 14.0299 165.414 13.4961C165.049 12.9557 164.867 12.373 164.867 11.748H166.674C166.706 12.3535 166.947 12.8353 167.396 13.1934C167.852 13.5449 168.451 13.7207 169.193 13.7207C169.877 13.7207 170.424 13.584 170.834 13.3105C171.251 13.0306 171.459 12.6595 171.459 12.1973ZM184.965 15.1953C183.533 15.1953 182.367 14.7266 181.469 13.7891C180.57 12.8451 180.121 11.5853 180.121 10.0098V9.67773C180.121 8.62956 180.32 7.69531 180.717 6.875C181.12 6.04818 181.68 5.40365 182.396 4.94141C183.119 4.47266 183.9 4.23828 184.74 4.23828C186.114 4.23828 187.182 4.69076 187.943 5.5957C188.705 6.50065 189.086 7.79622 189.086 9.48242V10.2344H181.928C181.954 11.276 182.257 12.1191 182.836 12.7637C183.422 13.4017 184.164 13.7207 185.062 13.7207C185.701 13.7207 186.241 13.5905 186.684 13.3301C187.126 13.0697 187.514 12.7246 187.846 12.2949L188.949 13.1543C188.064 14.515 186.736 15.1953 184.965 15.1953ZM184.74 5.72266C184.011 5.72266 183.399 5.98958 182.904 6.52344C182.41 7.05078 182.104 7.79297 181.986 8.75H187.279V8.61328C187.227 7.69531 186.98 6.98568 186.537 6.48438C186.094 5.97656 185.495 5.72266 184.74 5.72266ZM197.338 12.1973C197.338 11.709 197.152 11.3314 196.781 11.0645C196.417 10.791 195.775 10.5566 194.857 10.3613C193.946 10.166 193.22 9.93164 192.68 9.6582C192.146 9.38477 191.749 9.05924 191.488 8.68164C191.234 8.30404 191.107 7.85482 191.107 7.33398C191.107 6.4681 191.472 5.73568 192.201 5.13672C192.937 4.53776 193.874 4.23828 195.014 4.23828C196.212 4.23828 197.182 4.54753 197.924 5.16602C198.673 5.78451 199.047 6.57552 199.047 7.53906H197.23C197.23 7.04427 197.019 6.61784 196.596 6.25977C196.179 5.90169 195.652 5.72266 195.014 5.72266C194.356 5.72266 193.842 5.86589 193.471 6.15234C193.1 6.4388 192.914 6.81315 192.914 7.27539C192.914 7.71159 193.087 8.04036 193.432 8.26172C193.777 8.48307 194.398 8.69466 195.297 8.89648C196.202 9.09831 196.934 9.33919 197.494 9.61914C198.054 9.89909 198.467 10.2376 198.734 10.6348C199.008 11.0254 199.145 11.5039 199.145 12.0703C199.145 13.0143 198.767 13.7728 198.012 14.3457C197.257 14.9121 196.277 15.1953 195.072 15.1953C194.226 15.1953 193.477 15.0456 192.826 14.7461C192.175 14.4466 191.664 14.0299 191.293 13.4961C190.928 12.9557 190.746 12.373 190.746 11.748H192.553C192.585 12.3535 192.826 12.8353 193.275 13.1934C193.731 13.5449 194.33 13.7207 195.072 13.7207C195.756 13.7207 196.303 13.584 196.713 13.3105C197.13 13.0306 197.338 12.6595 197.338 12.1973ZM203.949 1.875V4.43359H205.922V5.83008H203.949V12.3828C203.949 12.806 204.037 13.125 204.213 13.3398C204.389 13.5482 204.688 13.6523 205.111 13.6523C205.32 13.6523 205.606 13.6133 205.971 13.5352V15C205.495 15.1302 205.033 15.1953 204.584 15.1953C203.777 15.1953 203.168 14.9512 202.758 14.4629C202.348 13.9746 202.143 13.2812 202.143 12.3828V5.83008H200.219V4.43359H202.143V1.875H203.949ZM214.564 15C214.46 14.7917 214.376 14.4206 214.311 13.8867C213.471 14.7591 212.468 15.1953 211.303 15.1953C210.261 15.1953 209.405 14.9023 208.734 14.3164C208.07 13.724 207.738 12.9753 207.738 12.0703C207.738 10.9701 208.155 10.1172 208.988 9.51172C209.828 8.89974 211.007 8.59375 212.523 8.59375H214.281V7.76367C214.281 7.13216 214.092 6.63086 213.715 6.25977C213.337 5.88216 212.781 5.69336 212.045 5.69336C211.4 5.69336 210.86 5.85612 210.424 6.18164C209.988 6.50716 209.77 6.90104 209.77 7.36328H207.953C207.953 6.83594 208.139 6.32812 208.51 5.83984C208.887 5.34505 209.395 4.95443 210.033 4.66797C210.678 4.38151 211.384 4.23828 212.152 4.23828C213.37 4.23828 214.324 4.54427 215.014 5.15625C215.704 5.76172 216.062 6.59831 216.088 7.66602V12.5293C216.088 13.4993 216.212 14.2708 216.459 14.8438V15H214.564ZM211.566 13.623C212.133 13.623 212.67 13.4766 213.178 13.1836C213.686 12.8906 214.053 12.5098 214.281 12.041V9.87305H212.865C210.652 9.87305 209.545 10.5208 209.545 11.8164C209.545 12.3828 209.734 12.8255 210.111 13.1445C210.489 13.4635 210.974 13.623 211.566 13.623ZM220.629 4.43359L220.688 5.76172C221.495 4.74609 222.549 4.23828 223.852 4.23828C226.085 4.23828 227.211 5.49805 227.23 8.01758V15H225.424V8.00781C225.417 7.24609 225.242 6.68294 224.896 6.31836C224.558 5.95378 224.027 5.77148 223.305 5.77148C222.719 5.77148 222.204 5.92773 221.762 6.24023C221.319 6.55273 220.974 6.96289 220.727 7.4707V15H218.92V4.43359H220.629ZM240.023 6.05469C239.75 6.00911 239.454 5.98633 239.135 5.98633C237.95 5.98633 237.146 6.49089 236.723 7.5V15H234.916V4.43359H236.674L236.703 5.6543C237.296 4.71029 238.135 4.23828 239.223 4.23828C239.574 4.23828 239.841 4.28385 240.023 4.375V6.05469ZM245.883 15.1953C244.451 15.1953 243.285 14.7266 242.387 13.7891C241.488 12.8451 241.039 11.5853 241.039 10.0098V9.67773C241.039 8.62956 241.238 7.69531 241.635 6.875C242.038 6.04818 242.598 5.40365 243.314 4.94141C244.037 4.47266 244.818 4.23828 245.658 4.23828C247.032 4.23828 248.1 4.69076 248.861 5.5957C249.623 6.50065 250.004 7.79622 250.004 9.48242V10.2344H242.846C242.872 11.276 243.174 12.1191 243.754 12.7637C244.34 13.4017 245.082 13.7207 245.98 13.7207C246.618 13.7207 247.159 13.5905 247.602 13.3301C248.044 13.0697 248.432 12.7246 248.764 12.2949L249.867 13.1543C248.982 14.515 247.654 15.1953 245.883 15.1953ZM245.658 5.72266C244.929 5.72266 244.317 5.98958 243.822 6.52344C243.327 7.05078 243.021 7.79297 242.904 8.75H248.197V8.61328C248.145 7.69531 247.898 6.98568 247.455 6.48438C247.012 5.97656 246.413 5.72266 245.658 5.72266ZM258.256 12.1973C258.256 11.709 258.07 11.3314 257.699 11.0645C257.335 10.791 256.693 10.5566 255.775 10.3613C254.864 10.166 254.138 9.93164 253.598 9.6582C253.064 9.38477 252.667 9.05924 252.406 8.68164C252.152 8.30404 252.025 7.85482 252.025 7.33398C252.025 6.4681 252.39 5.73568 253.119 5.13672C253.855 4.53776 254.792 4.23828 255.932 4.23828C257.13 4.23828 258.1 4.54753 258.842 5.16602C259.59 5.78451 259.965 6.57552 259.965 7.53906H258.148C258.148 7.04427 257.937 6.61784 257.514 6.25977C257.097 5.90169 256.57 5.72266 255.932 5.72266C255.274 5.72266 254.76 5.86589 254.389 6.15234C254.018 6.4388 253.832 6.81315 253.832 7.27539C253.832 7.71159 254.005 8.04036 254.35 8.26172C254.695 8.48307 255.316 8.69466 256.215 8.89648C257.12 9.09831 257.852 9.33919 258.412 9.61914C258.972 9.89909 259.385 10.2376 259.652 10.6348C259.926 11.0254 260.062 11.5039 260.062 12.0703C260.062 13.0143 259.685 13.7728 258.93 14.3457C258.174 14.9121 257.195 15.1953 255.99 15.1953C255.144 15.1953 254.395 15.0456 253.744 14.7461C253.093 14.4466 252.582 14.0299 252.211 13.4961C251.846 12.9557 251.664 12.373 251.664 11.748H253.471C253.503 12.3535 253.744 12.8353 254.193 13.1934C254.649 13.5449 255.248 13.7207 255.99 13.7207C256.674 13.7207 257.221 13.584 257.631 13.3105C258.048 13.0306 258.256 12.6595 258.256 12.1973ZM266.801 15.1953C265.368 15.1953 264.203 14.7266 263.305 13.7891C262.406 12.8451 261.957 11.5853 261.957 10.0098V9.67773C261.957 8.62956 262.156 7.69531 262.553 6.875C262.956 6.04818 263.516 5.40365 264.232 4.94141C264.955 4.47266 265.736 4.23828 266.576 4.23828C267.95 4.23828 269.018 4.69076 269.779 5.5957C270.541 6.50065 270.922 7.79622 270.922 9.48242V10.2344H263.764C263.79 11.276 264.092 12.1191 264.672 12.7637C265.258 13.4017 266 13.7207 266.898 13.7207C267.536 13.7207 268.077 13.5905 268.52 13.3301C268.962 13.0697 269.35 12.7246 269.682 12.2949L270.785 13.1543C269.9 14.515 268.572 15.1953 266.801 15.1953ZM266.576 5.72266C265.847 5.72266 265.235 5.98958 264.74 6.52344C264.245 7.05078 263.939 7.79297 263.822 8.75H269.115V8.61328C269.063 7.69531 268.816 6.98568 268.373 6.48438C267.93 5.97656 267.331 5.72266 266.576 5.72266ZM278.129 6.05469C277.855 6.00911 277.559 5.98633 277.24 5.98633C276.055 5.98633 275.251 6.49089 274.828 7.5V15H273.021V4.43359H274.779L274.809 5.6543C275.401 4.71029 276.241 4.23828 277.328 4.23828C277.68 4.23828 277.947 4.28385 278.129 4.375V6.05469ZM283.461 12.5488L286.078 4.43359H287.924L284.135 15H282.758L278.93 4.43359H280.775L283.461 12.5488ZM296.029 15C295.925 14.7917 295.84 14.4206 295.775 13.8867C294.936 14.7591 293.933 15.1953 292.768 15.1953C291.726 15.1953 290.87 14.9023 290.199 14.3164C289.535 13.724 289.203 12.9753 289.203 12.0703C289.203 10.9701 289.62 10.1172 290.453 9.51172C291.293 8.89974 292.471 8.59375 293.988 8.59375H295.746V7.76367C295.746 7.13216 295.557 6.63086 295.18 6.25977C294.802 5.88216 294.245 5.69336 293.51 5.69336C292.865 5.69336 292.325 5.85612 291.889 6.18164C291.452 6.50716 291.234 6.90104 291.234 7.36328H289.418C289.418 6.83594 289.604 6.32812 289.975 5.83984C290.352 5.34505 290.86 4.95443 291.498 4.66797C292.143 4.38151 292.849 4.23828 293.617 4.23828C294.835 4.23828 295.788 4.54427 296.479 5.15625C297.169 5.76172 297.527 6.59831 297.553 7.66602V12.5293C297.553 13.4993 297.676 14.2708 297.924 14.8438V15H296.029ZM293.031 13.623C293.598 13.623 294.135 13.4766 294.643 13.1836C295.15 12.8906 295.518 12.5098 295.746 12.041V9.87305H294.33C292.117 9.87305 291.01 10.5208 291.01 11.8164C291.01 12.3828 291.199 12.8255 291.576 13.1445C291.954 13.4635 292.439 13.623 293.031 13.623ZM299.945 9.62891C299.945 8.00781 300.329 6.70573 301.098 5.72266C301.866 4.73307 302.872 4.23828 304.115 4.23828C305.352 4.23828 306.332 4.66146 307.055 5.50781V0H308.861V15H307.201L307.113 13.8672C306.391 14.7526 305.385 15.1953 304.096 15.1953C302.872 15.1953 301.872 14.694 301.098 13.6914C300.329 12.6888 299.945 11.3802 299.945 9.76562V9.62891ZM301.752 9.83398C301.752 11.0319 301.999 11.9694 302.494 12.6465C302.989 13.3236 303.673 13.6621 304.545 13.6621C305.691 13.6621 306.527 13.1478 307.055 12.1191V7.26562C306.514 6.26953 305.684 5.77148 304.564 5.77148C303.679 5.77148 302.989 6.11328 302.494 6.79688C301.999 7.48047 301.752 8.49284 301.752 9.83398ZM311.195 9.61914C311.195 8.58398 311.397 7.65299 311.801 6.82617C312.211 5.99935 312.777 5.36133 313.5 4.91211C314.229 4.46289 315.059 4.23828 315.99 4.23828C317.429 4.23828 318.591 4.73633 319.477 5.73242C320.368 6.72852 320.814 8.05339 320.814 9.70703V9.83398C320.814 10.8626 320.616 11.7871 320.219 12.6074C319.828 13.4212 319.265 14.056 318.529 14.5117C317.8 14.9674 316.96 15.1953 316.01 15.1953C314.577 15.1953 313.415 14.6973 312.523 13.7012C311.638 12.7051 311.195 11.3867 311.195 9.74609V9.61914ZM313.012 9.83398C313.012 11.0059 313.282 11.9466 313.822 12.6562C314.369 13.3659 315.098 13.7207 316.01 13.7207C316.928 13.7207 317.657 13.3626 318.197 12.6465C318.738 11.9238 319.008 10.9147 319.008 9.61914C319.008 8.46029 318.731 7.52279 318.178 6.80664C317.631 6.08398 316.902 5.72266 315.99 5.72266C315.098 5.72266 314.379 6.07747 313.832 6.78711C313.285 7.49674 313.012 8.51237 313.012 9.83398ZM329.232 12.1973C329.232 11.709 329.047 11.3314 328.676 11.0645C328.311 10.791 327.67 10.5566 326.752 10.3613C325.84 10.166 325.115 9.93164 324.574 9.6582C324.04 9.38477 323.643 9.05924 323.383 8.68164C323.129 8.30404 323.002 7.85482 323.002 7.33398C323.002 6.4681 323.367 5.73568 324.096 5.13672C324.831 4.53776 325.769 4.23828 326.908 4.23828C328.106 4.23828 329.076 4.54753 329.818 5.16602C330.567 5.78451 330.941 6.57552 330.941 7.53906H329.125C329.125 7.04427 328.913 6.61784 328.49 6.25977C328.074 5.90169 327.546 5.72266 326.908 5.72266C326.251 5.72266 325.736 5.86589 325.365 6.15234C324.994 6.4388 324.809 6.81315 324.809 7.27539C324.809 7.71159 324.981 8.04036 325.326 8.26172C325.671 8.48307 326.293 8.69466 327.191 8.89648C328.096 9.09831 328.829 9.33919 329.389 9.61914C329.949 9.89909 330.362 10.2376 330.629 10.6348C330.902 11.0254 331.039 11.5039 331.039 12.0703C331.039 13.0143 330.661 13.7728 329.906 14.3457C329.151 14.9121 328.171 15.1953 326.967 15.1953C326.12 15.1953 325.372 15.0456 324.721 14.7461C324.07 14.4466 323.559 14.0299 323.188 13.4961C322.823 12.9557 322.641 12.373 322.641 11.748H324.447C324.48 12.3535 324.721 12.8353 325.17 13.1934C325.626 13.5449 326.225 13.7207 326.967 13.7207C327.65 13.7207 328.197 13.584 328.607 13.3105C329.024 13.0306 329.232 12.6595 329.232 12.1973ZM347.484 15H338.168V13.7012L343.09 8.23242C343.819 7.4056 344.32 6.73503 344.594 6.2207C344.874 5.69987 345.014 5.16276 345.014 4.60938C345.014 3.86719 344.789 3.25846 344.34 2.7832C343.891 2.30794 343.292 2.07031 342.543 2.07031C341.645 2.07031 340.945 2.32747 340.443 2.8418C339.949 3.34961 339.701 4.05924 339.701 4.9707H337.895C337.895 3.66211 338.314 2.60417 339.154 1.79688C340.001 0.989583 341.13 0.585938 342.543 0.585938C343.865 0.585938 344.91 0.934245 345.678 1.63086C346.446 2.32096 346.83 3.24219 346.83 4.39453C346.83 5.79427 345.938 7.46094 344.154 9.39453L340.346 13.5254H347.484V15ZM358.314 8.93555C358.314 11.0514 357.953 12.6237 357.23 13.6523C356.508 14.681 355.378 15.1953 353.842 15.1953C352.325 15.1953 351.202 14.694 350.473 13.6914C349.743 12.6823 349.366 11.1784 349.34 9.17969V6.76758C349.34 4.67773 349.701 3.125 350.424 2.10938C351.146 1.09375 352.279 0.585938 353.822 0.585938C355.352 0.585938 356.479 1.07747 357.201 2.06055C357.924 3.03711 358.295 4.54753 358.314 6.5918V8.93555ZM356.508 6.46484C356.508 4.9349 356.293 3.82161 355.863 3.125C355.434 2.42188 354.753 2.07031 353.822 2.07031C352.898 2.07031 352.224 2.41862 351.801 3.11523C351.378 3.81185 351.16 4.88281 351.146 6.32812V9.21875C351.146 10.7552 351.368 11.8913 351.811 12.627C352.26 13.3561 352.937 13.7207 353.842 13.7207C354.734 13.7207 355.395 13.3757 355.824 12.6855C356.26 11.9954 356.488 10.9082 356.508 9.42383V6.46484ZM369.945 15H360.629V13.7012L365.551 8.23242C366.28 7.4056 366.781 6.73503 367.055 6.2207C367.335 5.69987 367.475 5.16276 367.475 4.60938C367.475 3.86719 367.25 3.25846 366.801 2.7832C366.352 2.30794 365.753 2.07031 365.004 2.07031C364.105 2.07031 363.406 2.32747 362.904 2.8418C362.41 3.34961 362.162 4.05924 362.162 4.9707H360.355C360.355 3.66211 360.775 2.60417 361.615 1.79688C362.462 0.989583 363.591 0.585938 365.004 0.585938C366.326 0.585938 367.37 0.934245 368.139 1.63086C368.907 2.32096 369.291 3.24219 369.291 4.39453C369.291 5.79427 368.399 7.46094 366.615 9.39453L362.807 13.5254H369.945V15ZM377.797 15H375.98V2.95898L372.338 4.29688V2.65625L377.514 0.712891H377.797V15Z" fill="black"/>
</svg>
