<svg width="57" height="10" viewBox="0 0 57 10" fill="none" xmlns="http://www.w3.org/2000/svg">
<path d="M6.90039 6.29297C6.79492 7.19531 6.46094 7.89258 5.89844 8.38477C5.33984 8.87305 4.5957 9.11719 3.66602 9.11719C2.6582 9.11719 1.84961 8.75586 1.24023 8.0332C0.634766 7.31055 0.332031 6.34375 0.332031 5.13281V4.3125C0.332031 3.51953 0.472656 2.82227 0.753906 2.2207C1.03906 1.61914 1.44141 1.1582 1.96094 0.837891C2.48047 0.513672 3.08203 0.351562 3.76562 0.351562C4.67188 0.351562 5.39844 0.605469 5.94531 1.11328C6.49219 1.61719 6.81055 2.31641 6.90039 3.21094H5.76953C5.67188 2.53125 5.45898 2.03906 5.13086 1.73438C4.80664 1.42969 4.35156 1.27734 3.76562 1.27734C3.04688 1.27734 2.48242 1.54297 2.07227 2.07422C1.66602 2.60547 1.46289 3.36133 1.46289 4.3418V5.16797C1.46289 6.09375 1.65625 6.83008 2.04297 7.37695C2.42969 7.92383 2.9707 8.19727 3.66602 8.19727C4.29102 8.19727 4.76953 8.05664 5.10156 7.77539C5.4375 7.49023 5.66016 6.99609 5.76953 6.29297H6.90039ZM15.0039 5.00977C15.0039 5.8457 14.8633 6.57617 14.582 7.20117C14.3008 7.82227 13.9023 8.29688 13.3867 8.625C12.8711 8.95312 12.2695 9.11719 11.582 9.11719C10.9102 9.11719 10.3145 8.95312 9.79492 8.625C9.27539 8.29297 8.87109 7.82227 8.58203 7.21289C8.29688 6.59961 8.15039 5.89062 8.14258 5.08594V4.4707C8.14258 3.65039 8.28516 2.92578 8.57031 2.29688C8.85547 1.66797 9.25781 1.1875 9.77734 0.855469C10.3008 0.519531 10.8984 0.351562 11.5703 0.351562C12.2539 0.351562 12.8555 0.517578 13.375 0.849609C13.8984 1.17773 14.3008 1.65625 14.582 2.28516C14.8633 2.91016 15.0039 3.63867 15.0039 4.4707V5.00977ZM13.8848 4.45898C13.8848 3.44727 13.6816 2.67188 13.2754 2.13281C12.8691 1.58984 12.3008 1.31836 11.5703 1.31836C10.8594 1.31836 10.2988 1.58984 9.88867 2.13281C9.48242 2.67188 9.27344 3.42188 9.26172 4.38281V5.00977C9.26172 5.99023 9.4668 6.76172 9.87695 7.32422C10.291 7.88281 10.8594 8.16211 11.582 8.16211C12.3086 8.16211 12.8711 7.89844 13.2695 7.37109C13.668 6.83984 13.873 6.08008 13.8848 5.0918V4.45898ZM18.1445 0.46875L20.9336 7.42969L23.7227 0.46875H25.1816V9H24.0566V5.67773L24.1621 2.0918L21.3613 9H20.5L17.7051 2.10938L17.8164 5.67773V9H16.6914V0.46875H18.1445ZM28.293 5.66016V9H27.168V0.46875H30.3145C31.248 0.46875 31.9785 0.707031 32.5059 1.18359C33.0371 1.66016 33.3027 2.29102 33.3027 3.07617C33.3027 3.9043 33.043 4.54297 32.5234 4.99219C32.0078 5.4375 31.2676 5.66016 30.3027 5.66016H28.293ZM28.293 4.74023H30.3145C30.916 4.74023 31.377 4.59961 31.6973 4.31836C32.0176 4.0332 32.1777 3.62305 32.1777 3.08789C32.1777 2.58008 32.0176 2.17383 31.6973 1.86914C31.377 1.56445 30.9375 1.40625 30.3789 1.39453H28.293V4.74023ZM37.8672 5.54883H35.8633V9H34.7324V0.46875H37.5566C38.5176 0.46875 39.2559 0.6875 39.7715 1.125C40.291 1.5625 40.5508 2.19922 40.5508 3.03516C40.5508 3.56641 40.4062 4.0293 40.1172 4.42383C39.832 4.81836 39.4336 5.11328 38.9219 5.30859L40.9258 8.92969V9H39.7188L37.8672 5.54883ZM35.8633 4.62891H37.5918C38.1504 4.62891 38.5938 4.48438 38.9219 4.19531C39.2539 3.90625 39.4199 3.51953 39.4199 3.03516C39.4199 2.50781 39.2617 2.10352 38.9453 1.82227C38.6328 1.54102 38.1797 1.39844 37.5859 1.39453H35.8633V4.62891ZM46.8438 6.77344H43.2695L42.4668 9H41.3066L44.5645 0.46875H45.5488L48.8125 9H47.6582L46.8438 6.77344ZM43.6094 5.84766H46.5098L45.0566 1.85742L43.6094 5.84766ZM53.0898 5.54883H51.0859V9H49.9551V0.46875H52.7793C53.7402 0.46875 54.4785 0.6875 54.9941 1.125C55.5137 1.5625 55.7734 2.19922 55.7734 3.03516C55.7734 3.56641 55.6289 4.0293 55.3398 4.42383C55.0547 4.81836 54.6562 5.11328 54.1445 5.30859L56.1484 8.92969V9H54.9414L53.0898 5.54883ZM51.0859 4.62891H52.8145C53.373 4.62891 53.8164 4.48438 54.1445 4.19531C54.4766 3.90625 54.6426 3.51953 54.6426 3.03516C54.6426 2.50781 54.4844 2.10352 54.168 1.82227C53.8555 1.54102 53.4023 1.39844 52.8086 1.39453H51.0859V4.62891Z" fill="#FFFCFC"/>
</svg>
