<svg width="68" height="10" viewBox="0 0 68 10" fill="none" xmlns="http://www.w3.org/2000/svg">
<path d="M6.8125 6.29297C6.70703 7.19531 6.37305 7.89258 5.81055 8.38477C5.25195 8.87305 4.50781 9.11719 3.57812 9.11719C2.57031 9.11719 1.76172 8.75586 1.15234 8.0332C0.546875 7.31055 0.244141 6.34375 0.244141 5.13281V4.3125C0.244141 3.51953 0.384766 2.82227 0.666016 2.2207C0.951172 1.61914 1.35352 1.1582 1.87305 0.837891C2.39258 0.513672 2.99414 0.351562 3.67773 0.351562C4.58398 0.351562 5.31055 0.605469 5.85742 1.11328C6.4043 1.61719 6.72266 2.31641 6.8125 3.21094H5.68164C5.58398 2.53125 5.37109 2.03906 5.04297 1.73438C4.71875 1.42969 4.26367 1.27734 3.67773 1.27734C2.95898 1.27734 2.39453 1.54297 1.98438 2.07422C1.57812 2.60547 1.375 3.36133 1.375 4.3418V5.16797C1.375 6.09375 1.56836 6.83008 1.95508 7.37695C2.3418 7.92383 2.88281 8.19727 3.57812 8.19727C4.20312 8.19727 4.68164 8.05664 5.01367 7.77539C5.34961 7.49023 5.57227 6.99609 5.68164 6.29297H6.8125ZM14.916 5.00977C14.916 5.8457 14.7754 6.57617 14.4941 7.20117C14.2129 7.82227 13.8145 8.29688 13.2988 8.625C12.7832 8.95312 12.1816 9.11719 11.4941 9.11719C10.8223 9.11719 10.2266 8.95312 9.70703 8.625C9.1875 8.29297 8.7832 7.82227 8.49414 7.21289C8.20898 6.59961 8.0625 5.89062 8.05469 5.08594V4.4707C8.05469 3.65039 8.19727 2.92578 8.48242 2.29688C8.76758 1.66797 9.16992 1.1875 9.68945 0.855469C10.2129 0.519531 10.8105 0.351562 11.4824 0.351562C12.166 0.351562 12.7676 0.517578 13.2871 0.849609C13.8105 1.17773 14.2129 1.65625 14.4941 2.28516C14.7754 2.91016 14.916 3.63867 14.916 4.4707V5.00977ZM13.7969 4.45898C13.7969 3.44727 13.5938 2.67188 13.1875 2.13281C12.7812 1.58984 12.2129 1.31836 11.4824 1.31836C10.7715 1.31836 10.2109 1.58984 9.80078 2.13281C9.39453 2.67188 9.18555 3.42188 9.17383 4.38281V5.00977C9.17383 5.99023 9.37891 6.76172 9.78906 7.32422C10.2031 7.88281 10.7715 8.16211 11.4941 8.16211C12.2207 8.16211 12.7832 7.89844 13.1816 7.37109C13.5801 6.83984 13.7852 6.08008 13.7969 5.0918V4.45898ZM23.1602 9H22.0293L17.7344 2.42578V9H16.6035V0.46875H17.7344L22.041 7.07227V0.46875H23.1602V9ZM30.877 1.39453H28.1348V9H27.0156V1.39453H24.2793V0.46875H30.877V1.39453ZM36.3848 6.77344H32.8105L32.0078 9H30.8477L34.1055 0.46875H35.0898L38.3535 9H37.1992L36.3848 6.77344ZM33.1504 5.84766H36.0508L34.5977 1.85742L33.1504 5.84766ZM45.707 6.29297C45.6016 7.19531 45.2676 7.89258 44.7051 8.38477C44.1465 8.87305 43.4023 9.11719 42.4727 9.11719C41.4648 9.11719 40.6562 8.75586 40.0469 8.0332C39.4414 7.31055 39.1387 6.34375 39.1387 5.13281V4.3125C39.1387 3.51953 39.2793 2.82227 39.5605 2.2207C39.8457 1.61914 40.248 1.1582 40.7676 0.837891C41.2871 0.513672 41.8887 0.351562 42.5723 0.351562C43.4785 0.351562 44.2051 0.605469 44.752 1.11328C45.2988 1.61719 45.6172 2.31641 45.707 3.21094H44.5762C44.4785 2.53125 44.2656 2.03906 43.9375 1.73438C43.6133 1.42969 43.1582 1.27734 42.5723 1.27734C41.8535 1.27734 41.2891 1.54297 40.8789 2.07422C40.4727 2.60547 40.2695 3.36133 40.2695 4.3418V5.16797C40.2695 6.09375 40.4629 6.83008 40.8496 7.37695C41.2363 7.92383 41.7773 8.19727 42.4727 8.19727C43.0977 8.19727 43.5762 8.05664 43.9082 7.77539C44.2441 7.49023 44.4668 6.99609 44.5762 6.29297H45.707ZM52.9668 1.39453H50.2246V9H49.1055V1.39453H46.3691V0.46875H52.9668V1.39453ZM60.6309 5.00977C60.6309 5.8457 60.4902 6.57617 60.209 7.20117C59.9277 7.82227 59.5293 8.29688 59.0137 8.625C58.498 8.95312 57.8965 9.11719 57.209 9.11719C56.5371 9.11719 55.9414 8.95312 55.4219 8.625C54.9023 8.29297 54.498 7.82227 54.209 7.21289C53.9238 6.59961 53.7773 5.89062 53.7695 5.08594V4.4707C53.7695 3.65039 53.9121 2.92578 54.1973 2.29688C54.4824 1.66797 54.8848 1.1875 55.4043 0.855469C55.9277 0.519531 56.5254 0.351562 57.1973 0.351562C57.8809 0.351562 58.4824 0.517578 59.002 0.849609C59.5254 1.17773 59.9277 1.65625 60.209 2.28516C60.4902 2.91016 60.6309 3.63867 60.6309 4.4707V5.00977ZM59.5117 4.45898C59.5117 3.44727 59.3086 2.67188 58.9023 2.13281C58.4961 1.58984 57.9277 1.31836 57.1973 1.31836C56.4863 1.31836 55.9258 1.58984 55.5156 2.13281C55.1094 2.67188 54.9004 3.42188 54.8887 4.38281V5.00977C54.8887 5.99023 55.0938 6.76172 55.5039 7.32422C55.918 7.88281 56.4863 8.16211 57.209 8.16211C57.9355 8.16211 58.498 7.89844 58.8965 7.37109C59.2949 6.83984 59.5 6.08008 59.5117 5.0918V4.45898ZM64.832 5.19727C63.8672 4.91992 63.1641 4.58008 62.7227 4.17773C62.2852 3.77148 62.0664 3.27148 62.0664 2.67773C62.0664 2.00586 62.334 1.45117 62.8691 1.01367C63.4082 0.572266 64.1074 0.351562 64.9668 0.351562C65.5527 0.351562 66.0742 0.464844 66.5312 0.691406C66.9922 0.917969 67.3477 1.23047 67.5977 1.62891C67.8516 2.02734 67.9785 2.46289 67.9785 2.93555H66.8477C66.8477 2.41992 66.6836 2.01562 66.3555 1.72266C66.0273 1.42578 65.5645 1.27734 64.9668 1.27734C64.4121 1.27734 63.9785 1.40039 63.666 1.64648C63.3574 1.88867 63.2031 2.22656 63.2031 2.66016C63.2031 3.00781 63.3496 3.30273 63.6426 3.54492C63.9395 3.7832 64.4414 4.00195 65.1484 4.20117C65.8594 4.40039 66.4141 4.62109 66.8125 4.86328C67.2148 5.10156 67.5117 5.38086 67.7031 5.70117C67.8984 6.02148 67.9961 6.39844 67.9961 6.83203C67.9961 7.52344 67.7266 8.07812 67.1875 8.49609C66.6484 8.91016 65.9277 9.11719 65.0254 9.11719C64.4395 9.11719 63.8926 9.00586 63.3848 8.7832C62.877 8.55664 62.4844 8.24805 62.207 7.85742C61.9336 7.4668 61.7969 7.02344 61.7969 6.52734H62.9277C62.9277 7.04297 63.1172 7.45117 63.4961 7.75195C63.8789 8.04883 64.3887 8.19727 65.0254 8.19727C65.6191 8.19727 66.0742 8.07617 66.3906 7.83398C66.707 7.5918 66.8652 7.26172 66.8652 6.84375C66.8652 6.42578 66.7188 6.10352 66.4258 5.87695C66.1328 5.64648 65.6016 5.41992 64.832 5.19727Z" fill="#FFFDFD"/>
</svg>
