<svg width="50" height="10" viewBox="0 0 50 10" fill="none" xmlns="http://www.w3.org/2000/svg">
<path d="M3.8125 5.54883H1.80859V9H0.677734V0.46875H3.50195C4.46289 0.46875 5.20117 0.6875 5.7168 1.125C6.23633 1.5625 6.49609 2.19922 6.49609 3.03516C6.49609 3.56641 6.35156 4.0293 6.0625 4.42383C5.77734 4.81836 5.37891 5.11328 4.86719 5.30859L6.87109 8.92969V9H5.66406L3.8125 5.54883ZM1.80859 4.62891H3.53711C4.0957 4.62891 4.53906 4.48438 4.86719 4.19531C5.19922 3.90625 5.36523 3.51953 5.36523 3.03516C5.36523 2.50781 5.20703 2.10352 4.89062 1.82227C4.57812 1.54102 4.125 1.39844 3.53125 1.39453H1.80859V4.62891ZM12.9004 5.05664H9.20312V8.08008H13.498V9H8.07812V0.46875H13.4395V1.39453H9.20312V4.13672H12.9004V5.05664ZM21.1738 6.29297C21.0684 7.19531 20.7344 7.89258 20.1719 8.38477C19.6133 8.87305 18.8691 9.11719 17.9395 9.11719C16.9316 9.11719 16.123 8.75586 15.5137 8.0332C14.9082 7.31055 14.6055 6.34375 14.6055 5.13281V4.3125C14.6055 3.51953 14.7461 2.82227 15.0273 2.2207C15.3125 1.61914 15.7148 1.1582 16.2344 0.837891C16.7539 0.513672 17.3555 0.351562 18.0391 0.351562C18.9453 0.351562 19.6719 0.605469 20.2188 1.11328C20.7656 1.61719 21.084 2.31641 21.1738 3.21094H20.043C19.9453 2.53125 19.7324 2.03906 19.4043 1.73438C19.0801 1.42969 18.625 1.27734 18.0391 1.27734C17.3203 1.27734 16.7559 1.54297 16.3457 2.07422C15.9395 2.60547 15.7363 3.36133 15.7363 4.3418V5.16797C15.7363 6.09375 15.9297 6.83008 16.3164 7.37695C16.7031 7.92383 17.2441 8.19727 17.9395 8.19727C18.5645 8.19727 19.043 8.05664 19.375 7.77539C19.7109 7.49023 19.9336 6.99609 20.043 6.29297H21.1738ZM27.5371 5.05664H23.8398V8.08008H28.1348V9H22.7148V0.46875H28.0762V1.39453H23.8398V4.13672H27.5371V5.05664ZM35.5469 1.39453H32.8047V9H31.6855V1.39453H28.9492V0.46875H35.5469V1.39453ZM41.0547 6.77344H37.4805L36.6777 9H35.5176L38.7754 0.46875H39.7598L43.0234 9H41.8691L41.0547 6.77344ZM37.8203 5.84766H40.7207L39.2676 1.85742L37.8203 5.84766ZM46.6855 5.19727C45.7207 4.91992 45.0176 4.58008 44.5762 4.17773C44.1387 3.77148 43.9199 3.27148 43.9199 2.67773C43.9199 2.00586 44.1875 1.45117 44.7227 1.01367C45.2617 0.572266 45.9609 0.351562 46.8203 0.351562C47.4062 0.351562 47.9277 0.464844 48.3848 0.691406C48.8457 0.917969 49.2012 1.23047 49.4512 1.62891C49.7051 2.02734 49.832 2.46289 49.832 2.93555H48.7012C48.7012 2.41992 48.5371 2.01562 48.209 1.72266C47.8809 1.42578 47.418 1.27734 46.8203 1.27734C46.2656 1.27734 45.832 1.40039 45.5195 1.64648C45.2109 1.88867 45.0566 2.22656 45.0566 2.66016C45.0566 3.00781 45.2031 3.30273 45.4961 3.54492C45.793 3.7832 46.2949 4.00195 47.002 4.20117C47.7129 4.40039 48.2676 4.62109 48.666 4.86328C49.0684 5.10156 49.3652 5.38086 49.5566 5.70117C49.752 6.02148 49.8496 6.39844 49.8496 6.83203C49.8496 7.52344 49.5801 8.07812 49.041 8.49609C48.502 8.91016 47.7812 9.11719 46.8789 9.11719C46.293 9.11719 45.7461 9.00586 45.2383 8.7832C44.7305 8.55664 44.3379 8.24805 44.0605 7.85742C43.7871 7.4668 43.6504 7.02344 43.6504 6.52734H44.7812C44.7812 7.04297 44.9707 7.45117 45.3496 7.75195C45.7324 8.04883 46.2422 8.19727 46.8789 8.19727C47.4727 8.19727 47.9277 8.07617 48.2441 7.83398C48.5605 7.5918 48.7188 7.26172 48.7188 6.84375C48.7188 6.42578 48.5723 6.10352 48.2793 5.87695C47.9863 5.64648 47.4551 5.41992 46.6855 5.19727Z" fill="#FFFEFE"/>
</svg>
