<svg width="34" height="10" viewBox="0 0 34 10" fill="none" xmlns="http://www.w3.org/2000/svg">
<path d="M6.98438 9H5.85352V5.05664H1.55273V9H0.427734V0.46875H1.55273V4.13672H5.85352V0.46875H6.98438V9ZM15.5449 5.00977C15.5449 5.8457 15.4043 6.57617 15.123 7.20117C14.8418 7.82227 14.4434 8.29688 13.9277 8.625C13.4121 8.95312 12.8105 9.11719 12.123 9.11719C11.4512 9.11719 10.8555 8.95312 10.3359 8.625C9.81641 8.29297 9.41211 7.82227 9.12305 7.21289C8.83789 6.59961 8.69141 5.89062 8.68359 5.08594V4.4707C8.68359 3.65039 8.82617 2.92578 9.11133 2.29688C9.39648 1.66797 9.79883 1.1875 10.3184 0.855469C10.8418 0.519531 11.4395 0.351562 12.1113 0.351562C12.7949 0.351562 13.3965 0.517578 13.916 0.849609C14.4395 1.17773 14.8418 1.65625 15.123 2.28516C15.4043 2.91016 15.5449 3.63867 15.5449 4.4707V5.00977ZM14.4258 4.45898C14.4258 3.44727 14.2227 2.67188 13.8164 2.13281C13.4102 1.58984 12.8418 1.31836 12.1113 1.31836C11.4004 1.31836 10.8398 1.58984 10.4297 2.13281C10.0234 2.67188 9.81445 3.42188 9.80273 4.38281V5.00977C9.80273 5.99023 10.0078 6.76172 10.418 7.32422C10.832 7.88281 11.4004 8.16211 12.123 8.16211C12.8496 8.16211 13.4121 7.89844 13.8105 7.37109C14.209 6.83984 14.4141 6.08008 14.4258 5.0918V4.45898ZM18.6855 0.46875L21.4746 7.42969L24.2637 0.46875H25.7227V9H24.5977V5.67773L24.7031 2.0918L21.9023 9H21.041L18.2461 2.10938L18.3574 5.67773V9H17.2324V0.46875H18.6855ZM32.5312 5.05664H28.834V8.08008H33.1289V9H27.709V0.46875H33.0703V1.39453H28.834V4.13672H32.5312V5.05664Z" fill="#FFFEFE"/>
</svg>
